<?xml version="1.0" encoding="UTF-8"?>
<svg version="1.1" xmlns="http://www.w3.org/2000/svg" width="1000" height="1000">
<path d="M0 0 C1.28575928 -0.0033284 2.57151855 -0.0066568 3.89624023 -0.01008606 C6.60222208 -0.01601976 9.30817228 -0.01793215 12.01416016 -0.01733398 C14.74046514 -0.01725308 17.46660082 -0.02414854 20.19287109 -0.0378418 C36.28503753 -0.11739903 52.14184832 0.18729494 68.125 2.16796875 C69.25776367 2.29905029 70.39052734 2.43013184 71.55761719 2.56518555 C74.2099891 2.88390733 76.85471977 3.23291988 79.5 3.60546875 C80.40427734 3.73107178 81.30855469 3.8566748 82.24023438 3.98608398 C92.05557298 5.38715565 101.70608735 7.01122146 111.125 10.16796875 C112.57755923 10.46823276 114.03634529 10.74004893 115.5 10.98046875 C120.89038985 12.00137592 126.03143951 13.6202582 131.23974609 15.31567383 C134.49689646 16.37089296 137.73542893 17.34106519 141.06640625 18.13671875 C145.45892788 19.20430087 149.68254314 20.65075554 153.9375 22.16796875 C154.68708984 22.42835937 155.43667969 22.68875 156.20898438 22.95703125 C159.47470301 24.11272792 162.22917218 25.23741687 165.125 27.16796875 C166.19234375 27.47089844 167.2596875 27.77382812 168.359375 28.0859375 C172.241466 29.2014346 175.75541551 30.72553309 179.375 32.48046875 C180.69897477 33.1111895 182.02319524 33.74139472 183.34765625 34.37109375 C184.31276123 34.83225586 184.31276123 34.83225586 185.29736328 35.30273438 C187.78652893 36.48114782 190.29832578 37.60657084 192.8125 38.73046875 C202.41599875 43.10461709 211.64206939 47.95345726 220.8125 53.16796875 C221.69147949 53.66627197 222.57045898 54.1645752 223.47607422 54.67797852 C228.49737124 57.55760413 233.36358578 60.58270685 238.14038086 63.8527832 C240.05159656 65.11932509 241.99277121 66.24910367 244 67.35546875 C247.125 69.16796875 247.125 69.16796875 248.55859375 70.62109375 C250.89021746 72.92364485 253.65790435 74.35186478 256.48046875 75.984375 C257.02316406 76.37496094 257.56585937 76.76554687 258.125 77.16796875 C258.125 77.82796875 258.125 78.48796875 258.125 79.16796875 C259.445 79.49796875 260.765 79.82796875 262.125 80.16796875 C262.125 80.82796875 262.125 81.48796875 262.125 82.16796875 C262.8675 82.43609375 263.61 82.70421875 264.375 82.98046875 C267.01561949 84.12073626 268.98052844 85.26177181 271.125 87.16796875 C271.125 87.82796875 271.125 88.48796875 271.125 89.16796875 C271.9603125 89.26078125 271.9603125 89.26078125 272.8125 89.35546875 C276.07596487 90.50209154 277.76554906 92.68752032 280.125 95.16796875 C281.115 95.82796875 282.105 96.48796875 283.125 97.16796875 C283.125 97.82796875 283.125 98.48796875 283.125 99.16796875 C283.67800781 99.40644531 284.23101563 99.64492187 284.80078125 99.890625 C287.67165315 101.4683983 289.87809811 103.41558581 292.3125 105.60546875 C293.19292969 106.38792969 294.07335937 107.17039062 294.98046875 107.9765625 C297.125 110.16796875 297.125 110.16796875 298.125 113.16796875 C299.4403341 113.86948027 300.77617592 114.533228 302.125 115.16796875 C303.875 116.66796875 303.875 116.66796875 305.125 118.16796875 C305.125 118.82796875 305.125 119.48796875 305.125 120.16796875 C306.115 120.49796875 307.105 120.82796875 308.125 121.16796875 C308.125 121.82796875 308.125 122.48796875 308.125 123.16796875 C309.0221875 123.57015625 309.0221875 123.57015625 309.9375 123.98046875 C312.12347854 125.16714281 313.53832594 126.26395988 315.125 128.16796875 C315.125 128.82796875 315.125 129.48796875 315.125 130.16796875 C316.115 130.49796875 317.105 130.82796875 318.125 131.16796875 C319.62614368 132.82065646 321.05473667 134.54003561 322.4375 136.29296875 C325.12527475 139.67025434 327.82162737 143.00295029 330.6875 146.23046875 C333.125 149.16796875 333.125 149.16796875 333.125 151.16796875 C333.785 151.16796875 334.445 151.16796875 335.125 151.16796875 C336.4921875 152.99609375 336.4921875 152.99609375 338 155.41796875 C339.70450103 158.08099113 341.19322575 160.2361945 343.4375 162.48046875 C345.31656317 164.35953192 345.7538748 165.57009232 346.125 168.16796875 C346.785 168.16796875 347.445 168.16796875 348.125 168.16796875 C348.805625 169.62203125 348.805625 169.62203125 349.5 171.10546875 C350.78286221 174.23876457 350.78286221 174.23876457 353.125 175.16796875 C353.92526761 176.49304954 354.66671063 177.85402641 355.375 179.23046875 C357.07105165 182.38880539 358.84301788 185.22929457 361.0625 188.04296875 C364.70820857 192.75820918 367.36365491 197.90198654 370.125 203.16796875 C371.22750535 205.21053301 372.33174459 207.2521621 373.4375 209.29296875 C374.02789063 210.39769531 374.61828125 211.50242187 375.2265625 212.640625 C376.50927706 215.03784024 377.82010244 217.4168554 379.1484375 219.7890625 C397.40448387 252.77299222 408.29963643 288.73512339 416.69335938 325.29852295 C417.07159781 326.93668259 417.46069257 328.57232779 417.8515625 330.20751953 C421.01714658 343.64872979 421.90250381 357.30439477 422.875 371.04296875 C422.94048035 371.96739777 423.00596069 372.89182678 423.07342529 373.8442688 C424.30361306 391.65785465 424.19814353 409.20481595 423.32543945 427.0324707 C423.18718324 429.86195147 423.05506659 432.69167026 422.92382812 435.52148438 C421.63747426 462.82492019 421.63747426 462.82492019 419.875 471.04296875 C419.60816406 472.29851562 419.34132813 473.5540625 419.06640625 474.84765625 C418.91703613 475.53053711 418.76766602 476.21341797 418.61376953 476.91699219 C418.07090525 479.41709643 417.54888076 481.92114361 417.02734375 484.42578125 C411.29436024 511.69688927 403.69954853 537.78313452 393.10131836 563.55737305 C392.57809764 564.83295634 392.05755974 566.10964358 391.53979492 567.38745117 C388.54474761 574.77751865 385.36092109 581.93409685 381.40307617 588.86914062 C379.72518646 591.8870985 378.4064123 594.96443799 377.125 598.16796875 C376.465 598.16796875 375.805 598.16796875 375.125 598.16796875 C374.795 599.38484375 374.465 600.60171875 374.125 601.85546875 C371.88082821 608.57744809 367.97674832 614.26889475 364.125 620.16796875 C363.48175781 621.16054688 362.83851563 622.153125 362.17578125 623.17578125 C358.4977558 628.77115465 354.68475955 634.26844802 350.8125 639.73046875 C350.39178223 640.32657959 349.97106445 640.92269043 349.53759766 641.53686523 C347.96739304 643.73357202 346.4417206 645.85433059 344.51953125 647.7578125 C342.63550784 649.66294542 341.49540765 651.86922044 340.125 654.16796875 C335.26719433 660.49173944 330.02590038 666.49892528 324.65625 672.390625 C323.05660961 674.10059303 323.05660961 674.10059303 322.125 676.16796875 C321.465 676.16796875 320.805 676.16796875 320.125 676.16796875 C319.898125 676.70421875 319.67125 677.24046875 319.4375 677.79296875 C316.31317343 683.44651207 312.02606389 687.08374884 307.125 691.16796875 C305.92152556 692.62480623 304.71858082 694.0822934 303.5390625 695.55859375 C299.9833343 699.60544462 295.65204904 702.96053463 291.4375 706.29296875 C288.98535787 708.20734417 288.98535787 708.20734417 286.5 710.85546875 C284.125 713.16796875 284.125 713.16796875 281.125 714.16796875 C280.795 715.15796875 280.465 716.14796875 280.125 717.16796875 C278.51871931 718.57346436 276.8324998 719.8873439 275.125 721.16796875 C274.00544922 722.06515625 274.00544922 722.06515625 272.86328125 722.98046875 C271.66251953 723.93953125 271.66251953 723.93953125 270.4375 724.91796875 C269.67050781 725.5315625 268.90351562 726.14515625 268.11328125 726.77734375 C266.125 728.16796875 266.125 728.16796875 264.125 728.16796875 C263.795 729.15796875 263.465 730.14796875 263.125 731.16796875 C257.75357143 735.16796875 257.75357143 735.16796875 255.125 735.16796875 C255.125 735.82796875 255.125 736.48796875 255.125 737.16796875 C253.54296875 738.4296875 253.54296875 738.4296875 251.3125 739.85546875 C250.48878906 740.3865625 249.66507813 740.91765625 248.81640625 741.46484375 C247.92824219 742.026875 247.04007813 742.58890625 246.125 743.16796875 C245.24714844 743.73 244.36929688 744.29203125 243.46484375 744.87109375 C241.63020822 746.04314868 239.79289059 747.21101423 237.953125 748.375 C236.06298312 749.57330818 234.17756117 750.77909297 232.296875 751.9921875 C217.26127062 761.67293278 217.26127062 761.67293278 212.93359375 762.67578125 C212.33675781 762.83820312 211.73992188 763.000625 211.125 763.16796875 C210.795 763.82796875 210.465 764.48796875 210.125 765.16796875 C208.42602539 766.1418457 208.42602539 766.1418457 206.22265625 767.15625 C205.41948975 767.53048096 204.61632324 767.90471191 203.78881836 768.2902832 C202.9303833 768.68304443 202.07194824 769.07580566 201.1875 769.48046875 C199.43969731 770.29209318 197.69229704 771.10458479 195.9453125 771.91796875 C195.10645508 772.30726563 194.26759766 772.6965625 193.40332031 773.09765625 C190.76144789 774.33875877 188.15792787 775.64520039 185.5625 776.98046875 C181.68857606 778.94423988 177.74086429 780.56752903 173.69140625 782.1328125 C170.95196152 783.23776357 168.29691798 784.47154818 165.625 785.73046875 C161.45211317 787.64789859 157.35041657 789.11485211 152.93359375 790.3515625 C148.1522096 791.74142243 143.45320527 793.38618006 138.73828125 794.984375 C129.99336816 797.84892491 121.06122744 799.99762831 112.125 802.16796875 C111.44566406 802.33586914 110.76632812 802.50376953 110.06640625 802.67675781 C97.16676428 805.83976983 84.12784853 807.83097543 70.97241211 809.61108398 C68.20944196 810.01100371 65.47869825 810.45377803 62.73266602 810.94555664 C47.12910383 813.62197084 31.60141238 813.59154428 15.82836914 813.49053955 C12.94295834 813.47696637 10.05770087 813.48231123 7.17227268 813.48766804 C4.36948469 813.49101235 1.56679099 813.48437462 -1.23597908 813.4745388 C-3.20015309 813.4688823 -5.16434312 813.47011458 -7.12852478 813.47151184 C-8.32159744 813.46197983 -9.5146701 813.45244781 -10.74389648 813.44262695 C-11.78642075 813.43801956 -12.82894501 813.43341217 -13.90306091 813.42866516 C-17.15138867 813.14372413 -19.81976409 812.2790464 -22.875 811.16796875 C-25.22397641 810.77594195 -25.22397641 810.77594195 -27.52734375 810.640625 C-28.378125 810.57246582 -29.22890625 810.50430664 -30.10546875 810.43408203 C-30.99878906 810.36688965 -31.89210938 810.29969727 -32.8125 810.23046875 C-40.98502974 809.5311321 -48.77208784 808.37480265 -56.78613281 806.60644531 C-59.23336671 806.09274357 -61.68836355 805.63956945 -64.1484375 805.19140625 C-65.53772461 804.93689697 -65.53772461 804.93689697 -66.95507812 804.67724609 C-68.76290822 804.34783191 -70.57146444 804.02236768 -72.38085938 803.70166016 C-77.35148095 802.78276172 -82.05503109 801.57293447 -86.82275391 799.88818359 C-92.11674094 798.03031282 -97.54374861 796.54622363 -102.9375 795.0078125 C-109.90380516 793.00968893 -116.76806276 791.01016369 -123.453125 788.18359375 C-126.23389422 787.01746472 -129.04991152 785.97210624 -131.875 784.91796875 C-142.88331693 780.69702829 -153.7610855 775.91660758 -164.2421875 770.51171875 C-166.42307046 769.39862715 -168.61442108 768.32369939 -170.8203125 767.26171875 C-171.88354736 766.74448242 -171.88354736 766.74448242 -172.96826172 766.21679688 C-174.36532066 765.53740303 -175.76523533 764.86383785 -177.16845703 764.19726562 C-181.65088001 761.99989066 -185.10260145 759.43191358 -188.875 756.16796875 C-191.5874618 754.86302035 -191.5874618 754.86302035 -193.875 754.16796875 C-193.875 753.50796875 -193.875 752.84796875 -193.875 752.16796875 C-194.75800781 751.90242187 -195.64101563 751.636875 -196.55078125 751.36328125 C-205.86964678 748.01243183 -213.99182526 741.03107996 -221.875 735.16796875 C-223.29138322 734.13242471 -224.70807095 733.09729708 -226.125 732.0625 C-227.60452202 730.97313871 -229.08368969 729.883296 -230.5625 728.79296875 C-231.64277466 728.00660034 -231.64277466 728.00660034 -232.74487305 727.2043457 C-233.41043213 726.71023193 -234.07599121 726.21611816 -234.76171875 725.70703125 C-235.36201904 725.26568848 -235.96231934 724.8243457 -236.58081055 724.36962891 C-237.00789307 723.97308105 -237.43497559 723.5765332 -237.875 723.16796875 C-237.875 722.50796875 -237.875 721.84796875 -237.875 721.16796875 C-238.7103125 721.07515625 -238.7103125 721.07515625 -239.5625 720.98046875 C-242.85620783 719.82322005 -244.47004754 717.68477946 -246.875 715.16796875 C-248.7364896 713.58570259 -250.61935953 712.03553323 -252.51953125 710.5 C-252.96683594 710.06042969 -253.41414062 709.62085938 -253.875 709.16796875 C-253.875 708.50796875 -253.875 707.84796875 -253.875 707.16796875 C-254.45765625 706.89984375 -255.0403125 706.63171875 -255.640625 706.35546875 C-257.90286601 705.15315884 -259.68076318 703.82970962 -261.625 702.16796875 C-262.23859375 701.65234375 -262.8521875 701.13671875 -263.484375 700.60546875 C-264.875 699.16796875 -264.875 699.16796875 -264.875 697.16796875 C-265.865 696.83796875 -266.855 696.50796875 -267.875 696.16796875 C-269.21395632 694.50581607 -270.54630142 692.83833268 -271.875 691.16796875 C-273.32412453 690.00866913 -274.77348856 688.84965804 -276.2265625 687.6953125 C-278.96087885 685.16185825 -281.06767513 682.15729817 -283.26171875 679.15625 C-284.89855683 676.93804431 -284.89855683 676.93804431 -287.875 675.16796875 C-287.875 674.50796875 -287.875 673.84796875 -287.875 673.16796875 C-288.535 673.16796875 -289.195 673.16796875 -289.875 673.16796875 C-291.75 671.12109375 -291.75 671.12109375 -293.875 668.41796875 C-294.926875 667.09539062 -294.926875 667.09539062 -296 665.74609375 C-297.56807683 663.58998811 -298.78826484 661.59048254 -299.875 659.16796875 C-300.535 659.16796875 -301.195 659.16796875 -301.875 659.16796875 C-303.75256759 656.72468455 -305.51359812 654.27194719 -307.25 651.73046875 C-308.33167433 650.16902352 -309.4137163 648.60783291 -310.49609375 647.046875 C-311.33116455 645.83668701 -311.33116455 645.83668701 -312.18310547 644.60205078 C-313.82252336 642.24346545 -315.48540935 639.90391035 -317.16015625 637.5703125 C-317.68883301 636.83159912 -318.21750977 636.09288574 -318.76220703 635.33178711 C-319.76413707 633.93334522 -320.76883252 632.53687867 -321.77685547 631.14282227 C-324.71972126 627.0114718 -327.27269727 622.78744252 -329.68920898 618.32861328 C-331.08428182 615.78663375 -332.58528671 613.32463087 -334.10766602 610.85766602 C-338.83972494 603.17917022 -342.94623724 595.2935587 -346.88232422 587.18408203 C-347.87712648 585.16364989 -348.90334975 583.16257749 -349.94140625 581.1640625 C-354.32279302 572.69213934 -357.95216544 564.16847633 -361.1484375 555.18554688 C-362.13980368 552.43264025 -363.18152083 549.69981655 -364.22241211 546.96533203 C-369.19075003 533.88386208 -373.27350343 520.68087728 -376.875 507.16796875 C-377.06094727 506.4709082 -377.24689453 505.77384766 -377.43847656 505.05566406 C-381.0880209 491.2456823 -383.67474246 477.39437783 -385.5 463.23046875 C-385.62318604 462.29074219 -385.74637207 461.35101562 -385.87329102 460.3828125 C-387.9918808 443.18812109 -388.03347516 426.02081378 -388.00537109 408.72167969 C-388.00002042 404.80790313 -388.00533973 400.89424179 -388.01171875 396.98046875 C-388.0239066 360.36017788 -388.0239066 360.36017788 -385.375 345.35546875 C-385.12278687 343.90418579 -385.12278687 343.90418579 -384.86547852 342.42358398 C-379.18130553 311.22400263 -370.97216392 280.51755486 -358.875 251.16796875 C-358.46636719 250.141875 -358.05773437 249.11578125 -357.63671875 248.05859375 C-353.46091075 237.79369845 -348.52073339 227.93335024 -343.046875 218.30078125 C-341.78256858 215.99974357 -340.64136497 213.65722476 -339.5 211.29296875 C-337.19071924 206.60884405 -334.48707422 202.26810018 -331.62109375 197.90625 C-329.97703728 195.32798695 -328.45411834 192.70060075 -326.94848633 190.03979492 C-325.03635173 186.70562708 -323.02225627 183.43613523 -321 180.16796875 C-320.59136719 179.49507812 -320.18273437 178.8221875 -319.76171875 178.12890625 C-317.21570807 174.02039058 -314.47254454 170.37144208 -311.20263672 166.80859375 C-309.76339375 165.0300515 -308.89398061 163.20902247 -307.875 161.16796875 C-307.1325 160.44609375 -306.39 159.72421875 -305.625 158.98046875 C-302.66884491 155.95712832 -300.55331275 152.81524245 -298.3046875 149.25390625 C-296.9601128 147.29214972 -295.68682316 145.70557003 -293.875 144.16796875 C-293.215 144.16796875 -292.555 144.16796875 -291.875 144.16796875 C-291.50375 143.36359375 -291.50375 143.36359375 -291.125 142.54296875 C-288.66670058 137.87219985 -285.88343635 133.64194692 -281.875 130.16796875 C-281.215 130.16796875 -280.555 130.16796875 -279.875 130.16796875 C-279.61831543 129.5853125 -279.36163086 129.00265625 -279.09716797 128.40234375 C-277.76323854 125.96364577 -276.2991991 124.36418386 -274.3203125 122.41796875 C-273.62292969 121.72703125 -272.92554688 121.03609375 -272.20703125 120.32421875 C-271.11455078 119.256875 -271.11455078 119.256875 -270 118.16796875 C-269.27941406 117.45640625 -268.55882812 116.74484375 -267.81640625 116.01171875 C-266.46859046 114.68127811 -265.11872408 113.35290918 -263.76611328 112.02734375 C-262.41523238 110.69913449 -261.10492015 109.32914813 -259.82373047 107.93359375 C-257.875 106.16796875 -257.875 106.16796875 -254.875 106.16796875 C-254.545 105.17796875 -254.215 104.18796875 -253.875 103.16796875 C-253.215 103.16796875 -252.555 103.16796875 -251.875 103.16796875 C-251.545 102.17796875 -251.215 101.18796875 -250.875 100.16796875 C-248.8984375 98.328125 -248.8984375 98.328125 -246.25 96.23046875 C-245.26 95.44027344 -244.27 94.65007812 -243.25 93.8359375 C-242.43789063 93.19470947 -242.43789063 93.19470947 -241.609375 92.54052734 C-239.77396345 91.08800992 -237.94865877 89.62349185 -236.125 88.15625 C-232.94587468 85.59968664 -229.7581556 83.0542008 -226.56542969 80.51464844 C-225.09504921 79.34327081 -223.6291549 78.16626621 -222.1640625 76.98828125 C-211.07242489 68.16796875 -211.07242489 68.16796875 -206.875 68.16796875 C-206.875 67.50796875 -206.875 66.84796875 -206.875 66.16796875 C-204.62890625 64.57421875 -204.62890625 64.57421875 -201.4375 62.66796875 C-200.58188477 62.15327026 -200.58188477 62.15327026 -199.70898438 61.62817383 C-197.76956781 60.46571403 -195.82304109 59.31591329 -193.875 58.16796875 C-193.14780762 57.73790527 -192.42061523 57.3078418 -191.67138672 56.86474609 C-187.33857251 54.30347202 -182.99978736 51.75267607 -178.65234375 49.21630859 C-177.15184717 48.33126295 -175.66766293 47.41864763 -174.1875 46.5 C-171.80684204 45.12870885 -169.43457692 44.15799378 -166.875 43.16796875 C-165.28332377 42.39321244 -163.7000123 41.6010633 -162.125 40.79296875 C-158.75198309 39.0938556 -155.37095026 37.42936683 -151.9375 35.85546875 C-150.87208984 35.36626953 -150.87208984 35.36626953 -149.78515625 34.8671875 C-147.875 34.16796875 -147.875 34.16796875 -144.875 34.16796875 C-144.875 33.50796875 -144.875 32.84796875 -144.875 32.16796875 C-143.6375 31.77609375 -142.4 31.38421875 -141.125 30.98046875 C-136.22746247 29.35569327 -131.50844461 27.38796302 -126.76953125 25.3515625 C-123.83694646 24.1524084 -120.88323145 23.16072259 -117.875 22.16796875 C-116.57384281 21.67892066 -115.27445454 21.1851488 -113.9765625 20.6875 C-110.11883383 19.23011553 -106.21145683 17.99797306 -102.25 16.85546875 C-101.53199219 16.64744629 -100.81398438 16.43942383 -100.07421875 16.22509766 C-97.67587929 15.53440439 -95.27550659 14.85108915 -92.875 14.16796875 C-91.99875977 13.9157959 -91.12251953 13.66362305 -90.21972656 13.40380859 C-78.1710473 9.94876725 -66.26625246 7.03870665 -53.875 5.16796875 C-51.67578051 4.82422348 -49.47656182 4.48047307 -47.27734375 4.13671875 C-44.89344644 3.77071743 -42.50933049 3.40613738 -40.125 3.04296875 C-39.01229736 2.87200684 -37.89959473 2.70104492 -36.75317383 2.52490234 C-35.66415771 2.36328613 -34.5751416 2.20166992 -33.453125 2.03515625 C-32.49825195 1.89190918 -31.54337891 1.74866211 -30.55957031 1.60107422 C-20.37472483 0.40388923 -10.24906362 0.00949401 0 0 Z M1.125 46.16796875 C1.125 46.82796875 1.125 47.48796875 1.125 48.16796875 C-0.195 48.82796875 -1.515 49.48796875 -2.875 50.16796875 C-2.875 50.82796875 -2.875 51.48796875 -2.875 52.16796875 C-3.865 52.49796875 -4.855 52.82796875 -5.875 53.16796875 C-11.59632581 59.4537987 -13.72997222 67.13442722 -15.875 75.16796875 C-16.2892744 76.60616 -16.70537328 78.04383004 -17.125 79.48046875 C-17.49625 80.81078125 -17.49625 80.81078125 -17.875 82.16796875 C-19.174375 82.29171875 -20.47375 82.41546875 -21.8125 82.54296875 C-25.68257117 82.97430795 -29.38125769 83.67775602 -33.16796875 84.56640625 C-36.68055649 85.3469813 -40.21295816 86.00966537 -43.75 86.66796875 C-44.44432129 86.79800293 -45.13864258 86.92803711 -45.85400391 87.06201172 C-48.91116073 87.6312358 -51.96837723 88.18366628 -55.03515625 88.69921875 C-60.00939337 89.53875244 -64.66042142 90.62212583 -69.4140625 92.3125 C-73.52129184 93.74025115 -77.69585478 94.95105189 -81.859375 96.203125 C-84.59578981 97.07863595 -87.21295499 98.09226817 -89.875 99.16796875 C-91.87334234 99.83958794 -93.87352237 100.50575146 -95.875 101.16796875 C-105.56269581 104.59687601 -114.75007357 108.41160085 -123.875 113.16796875 C-125.16505087 113.80795492 -126.45682239 114.4444806 -127.75 115.078125 C-138.97936625 120.58639084 -149.6912829 126.6863986 -160.203125 133.4765625 C-162.84942521 135.15177886 -165.53912976 136.72499499 -168.25 138.29296875 C-172.01575613 140.52143836 -174.85919857 142.97476724 -177.875 146.16796875 C-179.20833333 146.83463542 -180.54166667 147.50130208 -181.875 148.16796875 C-182.638125 148.93109375 -183.40125 149.69421875 -184.1875 150.48046875 C-186.26363326 152.55660201 -188.06031732 154.08472689 -190.4375 155.73046875 C-193.20828249 157.65428716 -195.65818035 159.59645796 -197.875 162.16796875 C-197.875 162.82796875 -197.875 163.48796875 -197.875 164.16796875 C-198.46667969 164.44382812 -199.05835938 164.7196875 -199.66796875 165.00390625 C-205.49876693 168.07926529 -209.77956014 173.07243976 -213.9921875 178.03125 C-216.03139232 180.34545132 -218.17743458 182.50392552 -220.375 184.66796875 C-226.23144014 190.46475076 -231.54108008 196.49456058 -236.3203125 203.2109375 C-237.875 205.16796875 -237.875 205.16796875 -240.19140625 207.375 C-243.53643098 210.85635762 -246.05801736 214.63335102 -248.6875 218.66796875 C-249.21375977 219.46678467 -249.74001953 220.26560059 -250.28222656 221.08862305 C-253.95853292 226.69470918 -257.53660796 232.35186154 -261.00390625 238.08984375 C-262.29880966 240.22008151 -263.62109321 242.33382656 -264.96484375 244.43359375 C-268.84880941 250.53800161 -272.03973746 256.49219665 -274.671875 263.23046875 C-275.87632779 266.17121063 -277.26726516 268.92107643 -278.75 271.73046875 C-282.56843611 279.19960605 -285.27939567 287.06525877 -288.0793457 294.95678711 C-288.82680683 297.03403641 -289.60751613 299.09523966 -290.3984375 301.15625 C-306.34523887 343.50264259 -310.47039336 390.93404807 -306.5625 435.79296875 C-306.49760376 436.5484198 -306.43270752 437.30387085 -306.36584473 438.08221436 C-305.72176438 445.38252372 -304.95908633 452.59854488 -303.38330078 459.76708984 C-302.80166892 462.51433659 -302.35803478 465.26961265 -301.91796875 468.04296875 C-298.54989746 488.54597999 -293.10824016 509.30844299 -283.8203125 527.9765625 C-282.48342752 531.07570496 -281.47218288 533.87895398 -282.5 537.16796875 C-283.875 539.16796875 -283.875 539.16796875 -286.25 541.48046875 C-293.36210742 548.76191206 -294.875 557.19927785 -294.875 567.16796875 C-300.82983557 566.24441786 -305.22196717 564.69872875 -310.1484375 561.19140625 C-311.97059782 559.91301421 -311.97059782 559.91301421 -314.875 560.16796875 C-315.37 558.68296875 -315.37 558.68296875 -315.875 557.16796875 C-316.679375 556.52859375 -317.48375 555.88921875 -318.3125 555.23046875 C-320.76805131 553.2540494 -321.74539721 552.04332131 -322.875 549.16796875 C-323.865 549.49796875 -324.855 549.82796875 -325.875 550.16796875 C-327.20258866 562.78006101 -315.89693214 579.15968793 -308.73046875 589.015625 C-298.57121395 600.80036057 -283.49109015 606.0408259 -268.3828125 607.390625 C-261.61669123 607.63922051 -255.30674002 606.21298658 -248.875 604.16796875 C-248.545 603.83796875 -248.215 603.50796875 -247.875 603.16796875 C-245.54682036 602.80036144 -243.2131615 602.46555294 -240.875 602.16796875 C-239.875 604.16796875 -238.875 606.16796875 -237.875 608.16796875 C-237.215 608.16796875 -236.555 608.16796875 -235.875 608.16796875 C-235.6275 608.70421875 -235.38 609.24046875 -235.125 609.79296875 C-232.66670058 614.46373765 -229.88343635 618.69399058 -225.875 622.16796875 C-225.215 622.16796875 -224.555 622.16796875 -223.875 622.16796875 C-223.648125 622.70421875 -223.42125 623.24046875 -223.1875 623.79296875 C-221.41929911 626.99257036 -219.33829797 629.45834098 -216.875 632.16796875 C-216.215 632.16796875 -215.555 632.16796875 -214.875 632.16796875 C-214.38 633.65296875 -214.38 633.65296875 -213.875 635.16796875 C-212.4319464 636.41424231 -210.98352326 637.6556763 -209.4921875 638.84375 C-206.30363585 641.45466548 -203.51553783 644.49082876 -200.6875 647.48046875 C-199.04377727 649.39510826 -199.04377727 649.39510826 -196.875 649.16796875 C-196.545 650.15796875 -196.215 651.14796875 -195.875 652.16796875 C-194.41233856 653.4359363 -194.41233856 653.4359363 -192.625 654.54296875 C-190.32017445 656.04212519 -188.541439 657.50783417 -186.6015625 659.484375 C-183.4446179 662.59156832 -180.08091249 665.13826202 -176.5 667.73046875 C-175.86578125 668.19904297 -175.2315625 668.66761719 -174.578125 669.15039062 C-171.51480294 671.3853654 -168.44888196 673.46756189 -165.140625 675.32421875 C-162.54033594 676.79232454 -160.31551167 678.24791383 -158 680.10546875 C-153.85274954 683.28157803 -149.48267776 685.72730477 -144.875 688.16796875 C-142.95710753 689.20737677 -141.04046943 690.24910219 -139.125 691.29296875 C-137.80242187 692.00839844 -137.80242187 692.00839844 -136.453125 692.73828125 C-134.7321554 693.69263712 -133.03336549 694.68810933 -131.359375 695.72265625 C-128.90531976 697.1503299 -126.51844731 698.14104609 -123.875 699.16796875 C-121.43187531 700.30335145 -118.99550867 701.44894261 -116.5625 702.60546875 C-111.39541678 705.03927141 -106.25966196 707.25139415 -100.875 709.16796875 C-99.22721058 709.82978581 -97.58150022 710.49679435 -95.9375 711.16796875 C-86.25826836 715.03674158 -76.31637627 717.79168043 -66.26489258 720.51025391 C-64.63799366 720.95798766 -63.01547278 721.42187185 -61.3972168 721.89990234 C-53.51294292 724.18101624 -45.53537895 725.51430452 -37.4375 726.79296875 C-34.77172377 727.22015407 -32.10655386 727.650924 -29.44140625 728.08203125 C-28.27552979 728.26717285 -27.10965332 728.45231445 -25.90844727 728.64306641 C-22.875 729.16796875 -22.875 729.16796875 -20.86669922 729.70117188 C-9.6711677 732.32508169 3.00864158 731.32478018 14.43188477 731.29833984 C17.18706748 731.29296959 19.94208775 731.29832507 22.69726562 731.3046875 C36.01114074 731.31074052 49.11958272 730.79826586 62.3125 728.85546875 C63.19687744 728.72648193 64.08125488 728.59749512 64.99243164 728.46459961 C78.96541796 726.35577477 92.61071629 723.29446759 106.125 719.16796875 C107.8540499 718.64674791 109.58320713 718.12588291 111.3125 717.60546875 C112.10011719 717.36441406 112.88773438 717.12335937 113.69921875 716.875 C115.40037293 716.37917245 117.11285135 715.92136228 118.83203125 715.4921875 C124.47715406 714.07893298 129.26957356 712.20937978 134.40234375 709.484375 C137.53559856 707.96944405 140.70683369 706.85470006 144 705.73046875 C150.7075043 703.40529717 156.84263134 700.44814354 163.125 697.16796875 C164.35136563 696.55428701 165.57929976 695.94373206 166.80859375 695.3359375 C167.43314453 695.0270459 168.05769531 694.7181543 168.70117188 694.39990234 C169.31541016 694.09648926 169.92964844 693.79307617 170.5625 693.48046875 C174.52557482 691.51922012 178.35798628 689.48271624 182.125 687.16796875 C188.28549383 683.58772184 188.28549383 683.58772184 191.125 682.16796875 C191.125 681.50796875 191.125 680.84796875 191.125 680.16796875 C191.846875 679.92046875 192.56875 679.67296875 193.3125 679.41796875 C196.39394735 678.0484366 198.5310245 676.30799853 201.125 674.16796875 C202.78776112 673.16148814 204.45486066 672.16215805 206.125 671.16796875 C211.84712038 667.39678338 217.16559585 663.38533379 222.25 658.79296875 C224.03861826 657.24283293 225.86541167 655.88578829 227.8125 654.54296875 C230.93476568 652.3814002 233.47019509 649.89084558 236.125 647.16796875 C237.115 646.36359375 238.105 645.55921875 239.125 644.73046875 C241.35508522 642.82560429 243.00552054 641.21613103 244.8125 638.98046875 C247.125 636.16796875 247.125 636.16796875 250.125 634.16796875 C250.125 633.50796875 250.125 632.84796875 250.125 632.16796875 C251.115 631.83796875 252.105 631.50796875 253.125 631.16796875 C254.73916944 629.61361403 254.73916944 629.61361403 256.3125 627.66796875 C258.85391239 624.66739362 261.42561137 621.71015657 264.0625 618.79296875 C268.27418699 614.06606568 272.20741152 609.1390264 276.125 604.16796875 C277.45719692 602.50039359 278.79022666 600.83348239 280.125 599.16796875 C283.24790635 599.65375418 286.12080359 600.16656995 289.125 601.16796875 C296.59449764 601.74339672 302.27262459 601.10470107 309.125 598.16796875 C310.445 598.16796875 311.765 598.16796875 313.125 598.16796875 C313.44324634 607.5621292 313.5919703 616.24007115 310.125 625.16796875 C309.795 625.49796875 309.465 625.82796875 309.125 626.16796875 C309.08436168 627.8341399 309.082279 629.5018497 309.125 631.16796875 C312.46749629 630.57109441 314.58936342 629.43192998 317.125 627.16796875 C317.125 626.50796875 317.125 625.84796875 317.125 625.16796875 C318.00091797 624.78898438 318.00091797 624.78898438 318.89453125 624.40234375 C328.76897373 618.93767856 337.07420854 604.80345406 340.17285156 594.09008789 C344.0966211 578.48249415 342.00677012 563.66397462 335.125 549.16796875 C333.50179282 546.55963013 333.50179282 546.55963013 331.6875 544.29296875 C331.11128906 543.53242187 330.53507813 542.771875 329.94140625 541.98828125 C327.97631269 540.01896168 326.84219106 539.53822336 324.125 539.16796875 C324.125 538.50796875 324.125 537.84796875 324.125 537.16796875 C323.279375 536.61109375 322.43375 536.05421875 321.5625 535.48046875 C320.758125 534.71734375 319.95375 533.95421875 319.125 533.16796875 C319.19975267 528.90706653 319.75500074 526.72296764 322.125 523.16796875 C322.94871122 520.58989714 323.71303196 518.02357244 324.4375 515.41796875 C326.04969859 509.75691904 327.7674996 504.16991435 329.6875 498.60546875 C334.8924409 483.08823869 337.73400179 467.32658814 340.125 451.16796875 C340.30667725 450.06171143 340.48835449 448.9554541 340.67553711 447.81567383 C342.46467361 435.7467865 342.46264217 423.70097403 342.44067383 411.51831055 C342.43753908 407.90056466 342.46095757 404.28365957 342.48632812 400.66601562 C342.54691249 379.01309047 340.98485755 357.5081965 335.875 336.41796875 C335.57416504 335.1343042 335.27333008 333.85063965 334.96337891 332.52807617 C331.45752986 317.76019334 327.54620727 302.86512924 321.359375 288.96484375 C320.17389572 286.27875779 319.10359539 283.56210936 318.04956055 280.82226562 C311.64196967 264.26737697 302.97113227 248.53127369 294.125 233.16796875 C293.465 233.16796875 292.805 233.16796875 292.125 233.16796875 C291.98384766 232.34039062 291.98384766 232.34039062 291.83984375 231.49609375 C290.9333856 228.5439131 289.46156482 226.44075531 287.6875 223.91796875 C287.07003906 223.0259375 286.45257812 222.13390625 285.81640625 221.21484375 C285.25824219 220.539375 284.70007813 219.86390625 284.125 219.16796875 C283.465 219.16796875 282.805 219.16796875 282.125 219.16796875 C282.01671875 218.59949219 281.9084375 218.03101563 281.796875 217.4453125 C281.02555427 214.83089398 279.8946579 212.99037238 278.375 210.73046875 C277.64023438 209.61865234 277.64023438 209.61865234 276.890625 208.484375 C274.84284339 205.79779426 272.52360489 203.54480112 270.125 201.16796875 C268.58016868 199.35481091 267.0590938 197.52114228 265.5625 195.66796875 C264.81871094 194.75015625 264.07492187 193.83234375 263.30859375 192.88671875 C261.83645063 191.05378206 260.39143924 189.19876325 258.97265625 187.32421875 C258.36292969 186.61265625 257.75320313 185.90109375 257.125 185.16796875 C256.465 185.16796875 255.805 185.16796875 255.125 185.16796875 C254.465 183.84796875 253.805 182.52796875 253.125 181.16796875 C252.465 181.16796875 251.805 181.16796875 251.125 181.16796875 C250.795 180.17796875 250.465 179.18796875 250.125 178.16796875 C249.465 178.16796875 248.805 178.16796875 248.125 178.16796875 C247.795 177.17796875 247.465 176.18796875 247.125 175.16796875 C246.465 175.16796875 245.805 175.16796875 245.125 175.16796875 C244.465 173.84796875 243.805 172.52796875 243.125 171.16796875 C242.465 171.16796875 241.805 171.16796875 241.125 171.16796875 C240.795 170.17796875 240.465 169.18796875 240.125 168.16796875 C237.97538218 166.21850453 237.97538218 166.21850453 235.375 164.29296875 C232.66278332 162.2222644 230.14917613 160.19230341 227.7421875 157.76953125 C224.67403864 154.71969969 221.40526252 152.077658 218 149.41796875 C217.37996094 148.92425781 216.75992188 148.43054688 216.12109375 147.921875 C213.4788621 145.84786521 211.33606564 144.23832396 208.125 143.16796875 C207.09791499 142.19580807 206.0999489 141.19240744 205.125 140.16796875 C200.46736076 136.31119056 195.59075109 133.22259603 190.265625 130.37890625 C188.31369661 129.27471318 186.59306531 128.08750154 184.8125 126.73046875 C180.97567877 123.90333732 176.80484967 121.92828354 172.52734375 119.8515625 C168.05449756 117.63824825 163.67085899 115.27110558 159.2890625 112.88354492 C155.96138395 111.08597233 152.65873366 109.51113342 149.125 108.16796875 C148.27164062 107.80058594 147.41828125 107.43320313 146.5390625 107.0546875 C139.616684 104.07825865 132.63604243 101.59372062 125.47265625 99.28125 C123.51524977 98.63030385 121.56816153 97.94241393 119.65625 97.16796875 C103.18536589 90.66095281 84.68925592 86.30711504 67.12744141 84.33154297 C61.60291965 83.6154234 61.60291965 83.6154234 59.1640625 81.33203125 C58.15460193 79.22962089 57.56752987 77.37598121 57.0625 75.10546875 C54.54066433 66.97356016 47.48706911 60.15245776 40.125 56.16796875 C40.49323618 53.57915684 40.86283122 52.41184668 42.8046875 50.60546875 C51.33725357 45.01830805 60.16857857 42.12660903 70.125 40.16796875 C69.39314007 38.16103859 69.39314007 38.16103859 68.125 36.16796875 C65.06129033 35.26392327 62.26118436 34.66904243 59.125 34.16796875 C57.66126953 33.88953125 57.66126953 33.88953125 56.16796875 33.60546875 C35.98506473 30.02182118 17.19941488 32.54622281 1.125 46.16796875 Z " fill="#FFFFFF" transform="translate(482.875,94.83203125)"/>
<path d="M0 0 C2.6875 0.3125 2.6875 0.3125 4.75 1.75 C6.48462142 4.04417671 7.73123703 6.214261 9.0625 8.75 C11.35137504 13.08531472 13.83281489 15.35425329 17.6875 18.3125 C17.6875 18.9725 17.6875 19.6325 17.6875 20.3125 C18.77998047 20.74369141 18.77998047 20.74369141 19.89453125 21.18359375 C21.61156454 21.8776114 23.31993644 22.59417337 25.01171875 23.34765625 C33.96502409 27.23975427 41.3404746 28.22386857 50.6875 25.3125 C52.5746875 24.8484375 52.5746875 24.8484375 54.5 24.375 C57.68889435 23.31203522 58.55363158 22.72469909 60.6875 20.3125 C61.615625 19.77625 62.54375 19.24 63.5 18.6875 C69.3324474 14.34175488 72.67701891 7.83520902 75.6875 1.3125 C100.36443268 3.27098672 126.02860712 9.18363353 148.75 19.0625 C151.92545903 20.41375916 155.13902529 21.61399085 158.375 22.8125 C163.06889587 24.594494 167.3833155 26.61838937 171.6875 29.19921875 C173.70223522 30.37692923 173.70223522 30.37692923 176.04296875 31.25 C183.72105702 34.33484492 191.00119376 38.7343024 197.9453125 43.21484375 C199.56618444 44.23606576 201.25073239 45.15424052 202.9375 46.0625 C207.54593952 48.64280139 211.64554905 51.97629621 215.8203125 55.19140625 C218.58663686 57.31090489 218.58663686 57.31090489 221.3125 58.87890625 C223.66546128 60.29919702 225.54073976 61.8335207 227.5625 63.6875 C230.0791273 65.94345969 232.59136531 68.02109791 235.375 69.9375 C238.49835048 72.10198894 241.02941513 74.587963 243.6875 77.3125 C245.55156897 78.89129216 247.43205717 80.44509524 249.33203125 81.98046875 C249.77933594 82.42003906 250.22664062 82.85960937 250.6875 83.3125 C250.6875 83.9725 250.6875 84.6325 250.6875 85.3125 C251.6775 85.6425 252.6675 85.9725 253.6875 86.3125 C255.02645632 87.97465268 256.35880142 89.64213607 257.6875 91.3125 C259.12934268 92.49801509 260.57192185 93.68275822 262.02734375 94.8515625 C265.23357248 97.67304378 268.13406215 100.89028891 270.6875 104.3125 C270.6875 104.9725 270.6875 105.6325 270.6875 106.3125 C271.3475 106.3125 272.0075 106.3125 272.6875 106.3125 C276.6875 110.78308824 276.6875 110.78308824 276.6875 113.3125 C277.3475 113.3125 278.0075 113.3125 278.6875 113.3125 C280.31481387 115.38445168 281.82387305 117.45629675 283.3125 119.625 C284.22334844 120.93011336 285.13481267 122.23479716 286.046875 123.5390625 C286.49740234 124.18649414 286.94792969 124.83392578 287.41210938 125.50097656 C289.08052364 127.87073801 290.82251399 130.18245561 292.5625 132.5 C301.47608927 144.75844529 309.20921203 157.62253297 315.6875 171.3125 C316.55963758 173.00148114 317.43442582 174.68909758 318.3125 176.375 C320.66722628 181.07673215 322.54472369 185.91874771 324.37890625 190.84375 C325.4115295 193.58097224 326.4869096 196.28720351 327.58984375 198.99609375 C333.612966 214.00947692 338.44878834 229.46651076 341.6875 245.3125 C341.96207031 246.57449219 342.23664062 247.83648437 342.51953125 249.13671875 C351.1260626 291.06706116 350.71317867 338.84154511 340.19042969 380.30078125 C339.70121738 382.25763046 339.24464583 384.22254928 338.7890625 386.1875 C329.52061346 425.47938654 329.52061346 425.47938654 321.6875 433.3125 C319.32421875 433.5859375 319.32421875 433.5859375 316.375 433.6875 C310.31993245 434.07555149 305.03676606 435.54134441 299.3046875 437.47265625 C296.6875 438.3125 296.6875 438.3125 294.6875 438.3125 C294.6875 438.9725 294.6875 439.6325 294.6875 440.3125 C294.048125 440.415625 293.40875 440.51875 292.75 440.625 C292.069375 440.851875 291.38875 441.07875 290.6875 441.3125 C290.3575 442.3025 290.0275 443.2925 289.6875 444.3125 C288.924375 444.993125 288.16125 445.67375 287.375 446.375 C281.03127796 453.30883571 279.59006306 462.14124835 279.6875 471.3125 C280.26745926 478.19951619 282.72148516 483.65393871 285.7109375 489.81640625 C286.94431473 492.96891845 286.80521348 495.13131548 285.6875 498.3125 C285.0275 498.3125 284.3675 498.3125 283.6875 498.3125 C283.605 498.89 283.5225 499.4675 283.4375 500.0625 C282.47290516 502.95628451 280.85100267 504.1722608 278.6875 506.3125 C276.83636398 508.67133155 275.0549599 511.07270712 273.2734375 513.484375 C272.75007812 514.08765625 272.22671875 514.6909375 271.6875 515.3125 C271.0275 515.3125 270.3675 515.3125 269.6875 515.3125 C269.460625 515.869375 269.23375 516.42625 269 517 C267.32319499 519.95437072 265.11425648 521.94352343 262.6875 524.3125 C262.048125 525.1375 261.40875 525.9625 260.75 526.8125 C258.34460963 529.72812469 255.58753612 531.89580324 252.6875 534.3125 C251.34922696 535.97520287 250.01560215 537.64166181 248.6875 539.3125 C244.14695946 543.3125 244.14695946 543.3125 241.6875 543.3125 C241.4915625 543.86421875 241.295625 544.4159375 241.09375 544.984375 C239.09838002 548.28782086 236.23277494 550.29010395 233.1875 552.5625 C232.59324219 553.02140625 231.99898437 553.4803125 231.38671875 553.953125 C226.95754278 557.3125 226.95754278 557.3125 224.6875 557.3125 C224.3575 558.3025 224.0275 559.2925 223.6875 560.3125 C221.796875 561.77734375 221.796875 561.77734375 219.4375 563.25 C216.88763715 564.87774264 214.52423962 566.44718981 212.1875 568.375 C209.26465801 570.64020254 206.18307178 572.28112062 202.93359375 574.03125 C200.94766965 575.16409018 199.18902427 576.36619665 197.375 577.75 C193.431716 580.66857911 189.1000607 582.68969495 184.6953125 584.8203125 C181.23905048 586.53497755 177.92886119 588.43986201 174.625 590.4296875 C172.6875 591.3125 172.6875 591.3125 168.6875 591.3125 C168.6875 591.9725 168.6875 592.6325 168.6875 593.3125 C167.89085937 593.63863281 167.09421875 593.96476563 166.2734375 594.30078125 C164.68402344 594.95626953 164.68402344 594.95626953 163.0625 595.625 C162.01835938 596.05425781 160.97421875 596.48351562 159.8984375 596.92578125 C156.71363141 598.25569143 156.71363141 598.25569143 153.83984375 599.79296875 C149.94771269 601.66910132 145.98151271 602.98848583 141.875 604.3125 C141.11896484 604.56 140.36292969 604.8075 139.58398438 605.0625 C138.05594307 605.56272836 136.52721234 606.06085563 134.99780273 606.55688477 C132.65457265 607.32326933 130.31962812 608.11202936 127.984375 608.90234375 C120.24093796 611.48713789 112.30148914 613.2550735 104.2890625 614.78125 C101.37771131 615.37576015 98.50889768 616.09689264 95.625 616.8125 C89.00266142 618.36792472 82.3856828 619.17021014 75.6328125 619.8828125 C73.25604597 620.14166826 70.88266672 620.44465164 68.5234375 620.83203125 C62.75972824 621.55396225 56.99012257 621.68846246 51.1875 621.875 C49.3005542 621.9376001 49.3005542 621.9376001 47.37548828 622.00146484 C38.80762825 622.2730557 30.25929751 622.52606687 21.6875 622.3125 C20.37394531 622.28414062 19.06039063 622.25578125 17.70703125 622.2265625 C-2.03154007 621.57350616 -21.63858663 617.95393066 -40.6875 612.875 C-41.51749512 612.65473145 -42.34749023 612.43446289 -43.20263672 612.20751953 C-44.83911918 611.7725942 -46.4753598 611.33675763 -48.11132812 610.89990234 C-49.96403574 610.4054908 -51.81783226 609.9151623 -53.671875 609.42578125 C-69.6335262 605.16483199 -84.64249775 598.87932796 -99.3125 591.3125 C-100.60159597 590.67451358 -101.89204531 590.0392569 -103.18359375 589.40625 C-112.79199325 584.68898339 -122.4363654 579.93002688 -131.125 573.625 C-133.4396976 571.94570958 -135.58123396 570.55451767 -138.0625 569.1875 C-140.70599208 567.66240842 -142.26783541 566.45939782 -144.3125 564.3125 C-145.3025 563.9825 -146.2925 563.6525 -147.3125 563.3125 C-147.6425 562.6525 -147.9725 561.9925 -148.3125 561.3125 C-149.96920487 560.29608141 -151.63769117 559.29880278 -153.3125 558.3125 C-156.71686361 555.73360015 -160.00464765 553.01364897 -163.3125 550.3125 C-163.96605469 549.796875 -164.61960937 549.28125 -165.29296875 548.75 C-166.67090491 547.65026947 -167.99865091 546.48804918 -169.3125 545.3125 C-169.3125 544.6525 -169.3125 543.9925 -169.3125 543.3125 C-169.89 543.250625 -170.4675 543.18875 -171.0625 543.125 C-174.2161885 541.98616804 -175.27498151 539.94928864 -177.3125 537.3125 C-179.29206942 535.62161778 -181.29195196 533.95419528 -183.3125 532.3125 C-185.6875 530.125 -185.6875 530.125 -187.3125 528.3125 C-187.3125 527.6525 -187.3125 526.9925 -187.3125 526.3125 C-188.3025 525.9825 -189.2925 525.6525 -190.3125 525.3125 C-191.91796875 523.75390625 -191.91796875 523.75390625 -193.5 521.875 C-194.29470703 520.94880859 -194.29470703 520.94880859 -195.10546875 520.00390625 C-196.3125 518.3125 -196.3125 518.3125 -196.3125 516.3125 C-197.3025 515.9825 -198.2925 515.6525 -199.3125 515.3125 C-200.94159091 513.55960944 -202.49654347 511.73676823 -204 509.875 C-205.21236328 508.39193359 -205.21236328 508.39193359 -206.44921875 506.87890625 C-208.3125 504.3125 -208.3125 504.3125 -208.3125 502.3125 C-208.9725 502.3125 -209.6325 502.3125 -210.3125 502.3125 C-212.07747615 499.71694684 -212.31219328 498.3046786 -212.1875 495.125 C-211.47650609 492.02709796 -210.73951856 489.97275323 -209.375 487.1875 C-205.26843262 478.37486635 -204.13363677 467.80109795 -206.3125 458.3125 C-210.14922837 447.95777748 -217.00900452 441.84245747 -226.4375 436.5625 C-230.7909124 434.80931582 -235.39178861 434.7599149 -240.03125 434.5234375 C-241.1140625 434.45382812 -242.196875 434.38421875 -243.3125 434.3125 C-245.15328125 434.23128906 -245.15328125 434.23128906 -247.03125 434.1484375 C-250.3125 433.3125 -250.3125 433.3125 -252.0625 430.890625 C-252.68125 429.24320313 -252.68125 429.24320313 -253.3125 427.5625 C-253.66731445 426.64017578 -253.66731445 426.64017578 -254.02929688 425.69921875 C-254.82692485 423.58187903 -255.57207319 421.45048241 -256.3125 419.3125 C-256.5909375 418.53197266 -256.869375 417.75144531 -257.15625 416.94726562 C-261.89594268 403.6063003 -265.97572646 390.07141899 -269.3125 376.3125 C-269.61631592 375.09191895 -269.61631592 375.09191895 -269.92626953 373.84667969 C-278.6487131 337.34955738 -278.12816214 293.05988118 -271.3125 256.3125 C-271.04928955 254.86302979 -271.04928955 254.86302979 -270.78076172 253.38427734 C-268.42381886 240.63970367 -265.36067575 228.45189666 -260.98828125 216.25537109 C-259.9760792 213.34529021 -259.1175322 210.39340608 -258.25 207.4375 C-256.35771474 201.20316598 -253.93958377 195.26925972 -251.3125 189.3125 C-251.01778809 188.64275146 -250.72307617 187.97300293 -250.41943359 187.28295898 C-244.98158103 174.97602822 -239.53775067 162.688904 -232.3125 151.3125 C-231.673125 150.178125 -231.03375 149.04375 -230.375 147.875 C-225.99751774 140.19207196 -221.07968151 132.85688653 -216 125.625 C-215.3510376 124.68805298 -215.3510376 124.68805298 -214.68896484 123.73217773 C-213.61476469 122.22114746 -212.46936129 120.76122027 -211.3125 119.3125 C-210.6525 119.3125 -209.9925 119.3125 -209.3125 119.3125 C-209.05057861 118.56540771 -208.78865723 117.81831543 -208.51879883 117.04858398 C-207.29889939 114.28165159 -206.09826321 112.69225603 -204.01171875 110.53515625 C-203.36396484 109.85646484 -202.71621094 109.17777344 -202.04882812 108.47851562 C-201.37271484 107.78435547 -200.69660156 107.09019531 -200 106.375 C-198.66901853 104.99238007 -197.33956271 103.60828966 -196.01171875 102.22265625 C-195.3779834 101.56410645 -194.74424805 100.90555664 -194.09130859 100.22705078 C-192.46266933 98.47412887 -190.95088927 96.67632743 -189.45703125 94.80859375 C-188.74933594 93.98488281 -188.04164063 93.16117187 -187.3125 92.3125 C-186.6525 92.3125 -185.9925 92.3125 -185.3125 92.3125 C-184.8175 90.8275 -184.8175 90.8275 -184.3125 89.3125 C-182.7109375 87.734375 -182.7109375 87.734375 -180.6875 86.0625 C-177.994442 83.78412526 -175.44321089 81.48127889 -173 78.9375 C-169.22165004 75.08982252 -165.07322881 71.75183621 -160.875 68.375 C-158.96904752 66.84094069 -157.1008536 65.28596447 -155.25 63.6875 C-143.65460526 54.3125 -143.65460526 54.3125 -140.3125 54.3125 C-140.3125 53.6525 -140.3125 52.9925 -140.3125 52.3125 C-137.86326754 50.61456584 -135.42091399 49.04063619 -132.875 47.5 C-132.14522949 47.05221191 -131.41545898 46.60442383 -130.66357422 46.14306641 C-116.19866315 37.3125 -116.19866315 37.3125 -113.3125 37.3125 C-113.3125 36.6525 -113.3125 35.9925 -113.3125 35.3125 C-108.68809575 33.23623687 -104.2116349 31.61227048 -99.3125 30.3125 C-99.3125 29.6525 -99.3125 28.9925 -99.3125 28.3125 C-98.47847656 27.99796875 -97.64445313 27.6834375 -96.78515625 27.359375 C-89.34839664 24.54809933 -89.34839664 24.54809933 -82.0625 21.375 C-71.2571812 16.48687959 -59.88138068 13.00515383 -48.38671875 10.171875 C-45.76314629 9.43847482 -43.71150204 8.54757944 -41.3125 7.3125 C-39.33203125 6.78515625 -39.33203125 6.78515625 -37.125 6.375 C-36.26519531 6.21257812 -35.40539062 6.05015625 -34.51953125 5.8828125 C-31.99701644 5.43422887 -29.47366742 4.99216452 -26.94921875 4.5546875 C-26.18569092 4.4218335 -25.42216309 4.28897949 -24.63549805 4.15209961 C-23.09982311 3.88628178 -21.56352942 3.62401168 -20.02661133 3.36547852 C-16.05185478 2.727992 -16.05185478 2.727992 -12.3125 1.3125 C-8.23745076 0.65234202 -4.10794386 0.38754187 0 0 Z M11.62792969 87.84936523 C8.57635442 88.33000607 5.58422403 88.54065672 2.5 88.6875 C-11.0189427 89.64617502 -23.88931648 93.59046263 -36.6171875 98.04296875 C-39.20317657 98.93138994 -41.66635812 99.68328354 -44.3125 100.3125 C-44.3125 100.9725 -44.3125 101.6325 -44.3125 102.3125 C-45.55 102.51875 -46.7875 102.725 -48.0625 102.9375 C-54.33204417 104.33291579 -59.69314192 107.283371 -65.3125 110.3125 C-66.26769531 110.82425781 -67.22289062 111.33601563 -68.20703125 111.86328125 C-70.91791117 113.33056871 -73.61735477 114.81653397 -76.3125 116.3125 C-77.199375 116.80363281 -78.08625 117.29476562 -79 117.80078125 C-81.10563314 118.96874963 -83.20985122 120.13917006 -85.3125 121.3125 C-85.3125 121.9725 -85.3125 122.6325 -85.3125 123.3125 C-85.85648437 123.39371094 -86.40046875 123.47492188 -86.9609375 123.55859375 C-90.14853337 124.58053063 -92.28681359 126.33627945 -94.9375 128.375 C-95.45731445 128.77404541 -95.97712891 129.17309082 -96.51269531 129.58422852 C-97.58620845 130.4112518 -98.65716377 131.24160546 -99.72558594 132.07519531 C-101.25064141 133.26426933 -102.7852934 134.44100403 -104.3203125 135.6171875 C-107.89843378 138.36788006 -107.89843378 138.36788006 -111.3125 141.3125 C-111.3125 141.9725 -111.3125 142.6325 -111.3125 143.3125 C-113.2925 144.3025 -113.2925 144.3025 -115.3125 145.3125 C-115.3125 145.9725 -115.3125 146.6325 -115.3125 147.3125 C-115.84875 147.51875 -116.385 147.725 -116.9375 147.9375 C-120.23228009 149.84500426 -122.90613628 152.36069384 -125.3125 155.3125 C-125.3125 155.9725 -125.3125 156.6325 -125.3125 157.3125 C-126.7975 157.8075 -126.7975 157.8075 -128.3125 158.3125 C-128.3125 158.9725 -128.3125 159.6325 -128.3125 160.3125 C-129.1478125 160.4053125 -129.1478125 160.4053125 -130 160.5 C-132.57918042 161.19392723 -132.57918042 161.19392723 -134.5625 163.875 C-137.3125 166.3125 -137.3125 166.3125 -141.125 166.6875 C-143.87019972 166.51785283 -146.52066843 166.13990451 -149.25 165.75 C-157.4326816 164.6952012 -162.55188745 165.99585451 -169.2265625 170.87890625 C-171.77955527 172.63349117 -174.32228605 173.54577848 -177.3125 174.3125 C-180.21191607 163.5432403 -180.08897295 152.26978514 -178.3125 141.3125 C-183.47818394 141.99126734 -185.27894915 143.7661629 -188.48046875 147.70703125 C-197.65748385 160.75835124 -203.37860161 178.25716877 -201.3125 194.3125 C-199.13013988 206.01540613 -194.25055513 219.12429507 -184.3125 226.3125 C-180.93604609 229.2178208 -178.62184021 231.66613449 -177.47973633 236.0480957 C-177.09691888 241.23149986 -179.09106095 246.31787487 -180.5 251.25 C-196.01877267 309.9842175 -185.95612333 366.64947214 -159.3125 420.3125 C-158.6525 420.3125 -157.9925 420.3125 -157.3125 420.3125 C-157.1578125 421.3953125 -157.1578125 421.3953125 -157 422.5 C-156.24456053 425.59043421 -155.15718685 427.72993841 -153.3125 430.3125 C-152.6525 430.3125 -151.9925 430.3125 -151.3125 430.3125 C-151.04695313 431.02921875 -150.78140625 431.7459375 -150.5078125 432.484375 C-147.17949866 440.35920905 -141.9490051 447.07190536 -136.171875 453.296875 C-134.50639086 455.10231579 -132.96447895 456.95280297 -131.4375 458.875 C-130.73625 459.679375 -130.035 460.48375 -129.3125 461.3125 C-128.6525 461.3125 -127.9925 461.3125 -127.3125 461.3125 C-127.085625 461.869375 -126.85875 462.42625 -126.625 463 C-124.93872733 465.97105185 -122.782146 467.95772125 -120.3125 470.3125 C-119.425625 471.240625 -118.53875 472.16875 -117.625 473.125 C-115.60087851 475.54156662 -115.60087851 475.54156662 -113.3125 475.3125 C-112.8175 476.7975 -112.8175 476.7975 -112.3125 478.3125 C-110.59535771 479.85367068 -108.81454827 481.32479851 -107 482.75 C-101.63286613 486.98494808 -101.63286613 486.98494808 -99.22265625 489.44921875 C-97.26042203 491.36329999 -95.49695272 492.45275959 -93.0625 493.6875 C-89.9253418 495.35860061 -87.11494563 497.12659241 -84.3125 499.3125 C-80.19560434 502.48057986 -75.91643875 504.92006022 -71.3125 507.3125 C-70.25160156 507.88613281 -69.19070313 508.45976563 -68.09765625 509.05078125 C-48.62405517 519.36980946 -28.08811255 526.28298204 -6.53540039 530.69335938 C-4.3125 531.3125 -4.3125 531.3125 -1.3125 533.3125 C-0.20912817 535.49065889 0.82305745 537.70527936 1.8125 539.9375 C5.56642192 547.89829809 10.53630526 553.67856233 18.75 557.3125 C19.719375 557.6425 20.68875 557.9725 21.6875 558.3125 C21.38644935 561.92510785 20.97881912 563.05759577 18.1875 565.5 C17.3625 566.098125 16.5375 566.69625 15.6875 567.3125 C15.3575 567.9725 15.0275 568.6325 14.6875 569.3125 C12.625 570.4375 12.625 570.4375 10.6875 571.3125 C10.6875 571.9725 10.6875 572.6325 10.6875 573.3125 C9.759375 573.43625 8.83125 573.56 7.875 573.6875 C4.54824765 574.12783082 4.54824765 574.12783082 1.6875 576.3125 C-0.95267635 577.13029841 -3.61520591 577.6934489 -6.3125 578.3125 C-3.39150469 581.66623536 -1.68441642 582.71990275 2.6875 583.3125 C12.57291858 583.78271349 21.96403608 583.21403733 31.6875 581.3125 C32.40035156 581.20292969 33.11320313 581.09335937 33.84765625 580.98046875 C41.71261201 579.51083636 49.66312584 574.46190553 55.6875 569.3125 C55.6875 568.6525 55.6875 567.9925 55.6875 567.3125 C56.6775 566.9825 57.6675 566.6525 58.6875 566.3125 C67.23147364 557.46466119 74.6875 544.96667718 74.6875 532.3125 C75.3475 532.3125 76.0075 532.3125 76.6875 532.3125 C76.6875 531.6525 76.6875 530.9925 76.6875 530.3125 C77.90373047 530.14814453 77.90373047 530.14814453 79.14453125 529.98046875 C86.51657473 528.92486765 93.56723975 527.49173117 100.6875 525.3125 C101.53828125 525.05210937 102.3890625 524.79171875 103.265625 524.5234375 C106.82638831 523.38629051 109.54639284 522.40657144 112.6875 520.3125 C114.35698213 519.845045 116.02685626 519.37891816 117.69921875 518.921875 C127.09006474 516.04373753 135.96806548 510.77305426 144.6875 506.3125 C145.53699219 505.879375 146.38648438 505.44625 147.26171875 505 C160.45733926 497.97534435 172.34648705 488.44252586 183.32421875 478.38671875 C185.35983433 476.60008756 187.39328768 475.02696106 189.625 473.5 C192.32214828 471.57346551 194.02609903 470.1466546 195.6875 467.3125 C195.6875 466.6525 195.6875 465.9925 195.6875 465.3125 C196.265 465.085625 196.8425 464.85875 197.4375 464.625 C200.28341381 462.96488361 201.68591921 460.92062043 203.6875 458.3125 C204.43 457.590625 205.1725 456.86875 205.9375 456.125 C212.25354194 449.66541165 217.44485623 442.35682297 222.5625 434.9375 C223.03896973 434.24744873 223.51543945 433.55739746 224.00634766 432.84643555 C228.22548909 427.07880564 228.22548909 427.07880564 229.6875 420.3125 C230.3475 420.3125 231.0075 420.3125 231.6875 420.3125 C243.17760434 400.86277031 250.52106602 379.22981724 255.6875 357.3125 C255.95095215 356.24765381 256.2144043 355.18280762 256.48583984 354.08569336 C258.50281877 345.47214194 259.25908592 337.20732544 259.4375 328.375 C259.45396576 327.69495911 259.47043152 327.01491821 259.48739624 326.31427002 C260.12809371 299.53210787 259.82014232 273.20149902 251.35058594 247.53173828 C247.4574526 235.70642339 247.4574526 235.70642339 250 229.5 C250.556875 228.448125 251.11375 227.39625 251.6875 226.3125 C252.0175 225.52875 252.3475 224.745 252.6875 223.9375 C253.6875 222.3125 253.6875 222.3125 256.6875 221.3125 C257.89442667 219.32399799 257.89442667 219.32399799 258.8125 216.9375 C259.14507813 216.14601563 259.47765625 215.35453125 259.8203125 214.5390625 C261.52457465 210.16325427 261.79312076 206.8251632 261.75 202.125 C261.73646484 200.21654297 261.73646484 200.21654297 261.72265625 198.26953125 C261.70525391 196.80580078 261.70525391 196.80580078 261.6875 195.3125 C269.09320635 195.34462888 274.11492377 197.21826009 280.4375 201.03515625 C282.54616158 202.47706604 282.54616158 202.47706604 284.6875 202.3125 C284.935 202.910625 285.1825 203.50875 285.4375 204.125 C286.86822525 206.62876919 288.2566582 207.79322388 290.6875 209.3125 C291.3475 209.3125 292.0075 209.3125 292.6875 209.3125 C293.3916092 197.63602244 284.93688604 186.95919136 277.6875 178.3125 C275.15168552 175.79077338 272.49107179 173.52842356 269.6875 171.3125 C268.924375 170.631875 268.16125 169.95125 267.375 169.25 C256.54982096 161.44580115 247.7584958 160.13224556 234.6875 160.125 C233.52476562 160.11275391 232.36203125 160.10050781 231.1640625 160.08789062 C230.03742188 160.08595703 228.91078125 160.08402344 227.75 160.08203125 C226.22052734 160.07586792 226.22052734 160.07586792 224.66015625 160.06958008 C221.39567896 160.33634707 218.7556869 161.19279114 215.6875 162.3125 C211.53649979 163.27612505 209.39232639 163.57847222 205.375 162.0625 C202.6875 160.3125 202.6875 160.3125 200.6875 157.3125 C200.0275 157.3125 199.3675 157.3125 198.6875 157.3125 C198.3575 156.3225 198.0275 155.3325 197.6875 154.3125 C194.63241974 151.27972801 194.63241974 151.27972801 190.6875 150.3125 C190.419375 149.714375 190.15125 149.11625 189.875 148.5 C188.68832594 146.31402146 187.59150887 144.89917406 185.6875 143.3125 C185.0275 143.3125 184.3675 143.3125 183.6875 143.3125 C183.3575 142.3225 183.0275 141.3325 182.6875 140.3125 C179.63241974 137.27972801 179.63241974 137.27972801 175.6875 136.3125 C175.6875 135.6525 175.6875 134.9925 175.6875 134.3125 C164.62509638 124.49576336 164.62509638 124.49576336 151.6875 119.3125 C151.6875 118.6525 151.6875 117.9925 151.6875 117.3125 C150.90375 116.920625 150.12 116.52875 149.3125 116.125 C146.5625 114.75 143.8125 113.375 141.0625 112 C140.19496094 111.56945312 139.32742188 111.13890625 138.43359375 110.6953125 C136.60268729 109.77334822 134.7821433 108.83051154 132.97265625 107.8671875 C121.9341723 102.08296134 110.15684613 97.99621243 98.08203125 94.953125 C96.30958227 94.47892984 94.55859894 93.92285202 92.82421875 93.32421875 C86.60403836 91.31795882 80.11892419 90.4032864 73.6875 89.3125 C72.89311523 89.17134766 72.09873047 89.03019531 71.28027344 88.88476562 C59.55138137 86.83972803 48.03322937 86.03160436 36.125 86 C34.88927246 85.99460205 33.65354492 85.9892041 32.38037109 85.98364258 C25.32063771 86.0381817 18.58073675 86.61416571 11.62792969 87.84936523 Z " fill="#FFFFFF" transform="translate(464.3125,190.6875)"/>
<path d="M0 0 C1.51077803 0.02974516 3.02168431 0.05366853 4.53265381 0.07116699 C15.45987079 0.21256748 25.10425515 1.82268894 35.61581421 4.85784912 C37.84491897 5.46224417 40.07407585 6.06644703 42.30331421 6.67034912 C72.5627755 15.47436191 105.13448635 27.81448806 127.61581421 50.85784912 C131.25895119 54.15112326 134.9715478 57.34901059 138.80331421 60.42034912 C141.78942573 63.00831244 144.12707327 65.79478335 146.61581421 68.85784912 C147.56456421 69.62097412 148.51331421 70.38409912 149.49081421 71.17034912 C151.79415404 74.08339655 151.9448766 74.49274156 151.67831421 77.98284912 C151.06706395 81.57320261 149.93978787 84.78468954 148.61581421 88.17034912 C144.82067922 98.15169316 144.61795461 107.88882744 148.61581421 117.85784912 C153.06114059 126.42867919 153.06114059 126.42867919 160.61581421 131.85784912 C160.61581421 132.51784912 160.61581421 133.17784912 160.61581421 133.85784912 C167.55124659 136.26054191 174.46682826 137.6294006 181.72494507 138.5914917 C184.89700723 139.07472562 187.28214477 139.6264151 189.93612671 141.46722412 C202.11128158 158.79558408 202.29646962 186.81286078 202.13729858 207.00921631 C202.11586548 210.22515598 202.13724408 213.43885138 202.16268921 216.65472412 C202.18781374 236.31480724 200.0521067 256.1841321 193.61581421 274.85784912 C193.36960327 275.58133545 193.12339233 276.30482178 192.86972046 277.05023193 C189.18968123 287.76900649 184.89953939 297.83655304 179.61581421 307.85784912 C178.73711304 309.6477035 177.86177453 311.43921522 176.99081421 313.23284912 C172.43208388 322.32021915 172.43208388 322.32021915 169.61581421 325.85784912 C168.95581421 325.85784912 168.29581421 325.85784912 167.61581421 325.85784912 C167.43018921 326.64159912 167.24456421 327.42534912 167.05331421 328.23284912 C165.04853931 333.28836843 162.10901849 337.68907232 158.61581421 341.85784912 C157.95581421 341.85784912 157.29581421 341.85784912 156.61581421 341.85784912 C156.22522827 342.72603271 156.22522827 342.72603271 155.82675171 343.61175537 C154.53389096 346.00980354 153.06856346 347.78003609 151.24081421 349.79534912 C149.25506575 352.00628555 147.36423856 354.18565981 145.55331421 356.54534912 C143.18768787 359.36883862 140.44237897 361.50237849 137.61581421 363.85784912 C136.79210327 364.97159912 136.79210327 364.97159912 135.95175171 366.10784912 C132.80728158 369.80970024 129.13062992 372.47724677 125.24081421 375.35784912 C123.75290848 376.47119525 122.26591308 377.58575909 120.77987671 378.70159912 C120.06920044 379.23414307 119.35852417 379.76668701 118.62631226 380.31536865 C116.8076875 381.71064142 115.04680667 383.14846364 113.29940796 384.63128662 C111.23322663 386.34558554 109.40023689 387.72738687 107.05331421 388.98284912 C105.0706119 390.06432311 103.10176042 391.17418991 101.17831421 392.35784912 C91.78248088 397.85784912 91.78248088 397.85784912 88.61581421 397.85784912 C88.61581421 398.51784912 88.61581421 399.17784912 88.61581421 399.85784912 C84.01304141 402.264375 79.54920456 404.21338567 74.61581421 405.85784912 C73.37998286 406.49083591 72.15133202 407.13794604 70.92831421 407.79534912 C67.03257283 409.78341977 63.17689294 410.93432374 58.94393921 411.99847412 C56.34876125 412.6685905 53.79220851 413.38835138 51.22518921 414.15472412 C50.44514526 414.38361328 49.66510132 414.61250244 48.86141968 414.84832764 C47.32142241 415.30112807 45.78379724 415.76210503 44.24911499 416.23260498 C39.19851352 417.69250075 33.83103671 419.17383386 28.61581421 417.85784912 C26.47080511 415.48086126 25.31974429 413.87424265 23.92831421 411.10784912 C21.11900519 405.84240136 18.90507285 403.00261922 13.61581421 399.85784912 C12.87331421 399.01222412 12.13081421 398.16659912 11.36581421 397.29534912 C4.64450164 391.33782207 -4.13629151 391.31505308 -12.75918579 391.50628662 C-20.86734486 392.29263826 -27.14539589 395.78883233 -33.38418579 400.85784912 C-34.04418579 401.84784912 -34.70418579 402.83784912 -35.38418579 403.85784912 C-36.04418579 403.85784912 -36.70418579 403.85784912 -37.38418579 403.85784912 C-37.49762329 404.41085693 -37.61106079 404.96386475 -37.72793579 405.53363037 C-38.49038156 408.23395914 -39.61360939 410.54482521 -40.88418579 413.04534912 C-41.32762329 413.92577881 -41.77106079 414.8062085 -42.22793579 415.71331787 C-43.38418579 417.85784912 -43.38418579 417.85784912 -44.38418579 418.85784912 C-52.99144491 419.13678807 -61.34253331 415.98736481 -69.44277954 413.45697021 C-71.91173515 412.69504654 -74.39794689 411.99848856 -76.88418579 411.29534912 C-81.58289684 409.87701982 -85.94430858 407.93325082 -90.38418579 405.85784912 C-91.24914673 405.47628662 -92.11410767 405.09472412 -93.00527954 404.70159912 C-99.66578815 401.75396978 -106.05391193 398.45796101 -112.38418579 394.85784912 C-113.58301392 394.1830249 -113.58301392 394.1830249 -114.80606079 393.49456787 C-120.61478922 390.12512573 -126.05588493 386.32710922 -131.47525024 382.37249756 C-133.94866022 380.5712137 -136.37761656 378.86151366 -139.05215454 377.36956787 C-141.83086659 375.56829222 -143.34390827 373.45491993 -145.38418579 370.85784912 C-148.23114897 368.42838753 -151.16607153 366.14551664 -154.11856079 363.84613037 C-155.24004517 362.86193115 -155.24004517 362.86193115 -156.38418579 361.85784912 C-156.38418579 361.19784912 -156.38418579 360.53784912 -156.38418579 359.85784912 C-157.37418579 359.52784912 -158.36418579 359.19784912 -159.38418579 358.85784912 C-161.03262329 357.22113037 -161.03262329 357.22113037 -162.75918579 355.17034912 C-163.36633423 354.45234131 -163.97348267 353.7343335 -164.59902954 352.99456787 C-165.1881311 352.28945068 -165.77723267 351.5843335 -166.38418579 350.85784912 C-167.15955688 349.97032959 -167.15955688 349.97032959 -167.95059204 349.06488037 C-171.38418579 345.10304143 -171.38418579 345.10304143 -171.38418579 342.85784912 C-172.37418579 342.52784912 -173.36418579 342.19784912 -174.38418579 341.85784912 C-175.63931274 340.45013428 -175.63931274 340.45013428 -176.87246704 338.64691162 C-177.55659668 337.65328613 -177.55659668 337.65328613 -178.25454712 336.6395874 C-178.73045288 335.92786377 -179.20635864 335.21614014 -179.69668579 334.48284912 C-180.43471436 333.39399414 -180.43471436 333.39399414 -181.18765259 332.28314209 C-184.43079573 327.4406627 -187.38267493 322.52076724 -190.06387329 317.34222412 C-191.37101716 314.88262796 -192.81921468 312.57701871 -194.32168579 310.23284912 C-198.58652342 303.19921639 -201.44169079 295.51327852 -204.38418579 287.85784912 C-204.63088013 287.21702393 -204.87757446 286.57619873 -205.13174438 285.91595459 C-209.68483815 273.9549741 -212.5093257 261.76301204 -215.00918579 249.23284912 C-215.22574829 248.178396 -215.44231079 247.12394287 -215.66543579 246.03753662 C-219.99753938 224.43050143 -219.68107302 201.61323461 -216.38418579 179.85784912 C-216.28234985 179.18431396 -216.18051392 178.51077881 -216.07559204 177.8168335 C-214.78683741 169.64676555 -212.918605 161.62051856 -210.88418579 153.60784912 C-210.68268921 152.79702881 -210.48119263 151.9862085 -210.27359009 151.15081787 C-208.17733563 143.19329794 -208.17733563 143.19329794 -205.38418579 140.85784912 C-202.56719637 140.12730207 -199.9968811 139.61454183 -197.13418579 139.23284912 C-186.8964817 138.17453691 -186.8964817 138.17453691 -178.19668579 133.35784912 C-175.38418579 130.85784912 -175.38418579 130.85784912 -173.43106079 129.93988037 C-168.36518229 127.26192551 -165.22045664 122.05483186 -163.23184204 116.83050537 C-160.11840248 104.99369599 -161.28962282 94.92539566 -166.3878479 83.96966553 C-168.10988377 80.17552371 -168.80798122 77.83753098 -167.38418579 73.85784912 C-165.44668579 71.04534912 -165.44668579 71.04534912 -163.38418579 68.85784912 C-162.72418579 68.85784912 -162.06418579 68.85784912 -161.38418579 68.85784912 C-160.88918579 67.37284912 -160.88918579 67.37284912 -160.38418579 65.85784912 C-158.9411322 64.61157556 -157.49270905 63.37014157 -156.00137329 62.18206787 C-152.81282164 59.57115239 -150.02472362 56.53498911 -147.19668579 53.54534912 C-145.38418579 51.85784912 -145.38418579 51.85784912 -143.38418579 51.85784912 C-143.05418579 50.86784912 -142.72418579 49.87784912 -142.38418579 48.85784912 C-141.39418579 48.52784912 -140.40418579 48.19784912 -139.38418579 47.85784912 C-138.86856079 47.34222412 -138.35293579 46.82659912 -137.82168579 46.29534912 C-137.34731079 45.82097412 -136.87293579 45.34659912 -136.38418579 44.85784912 C-135.72418579 44.85784912 -135.06418579 44.85784912 -134.38418579 44.85784912 C-134.38418579 44.19784912 -134.38418579 43.53784912 -134.38418579 42.85784912 C-128.27061039 37.81089752 -121.22258761 33.83230488 -114.38418579 29.85784912 C-113.33488892 29.22878662 -112.28559204 28.59972412 -111.20449829 27.95159912 C-94.39718875 18.04252774 -76.33294978 11.02308916 -57.32949829 6.57659912 C-52.71170692 5.44971104 -48.16713062 4.07623966 -43.61074829 2.72503662 C-29.57456145 -1.04740101 -14.41878628 -0.2972165 0 0 Z M-27.38418579 50.85784912 C-28.37418579 51.51784912 -29.36418579 52.17784912 -30.38418579 52.85784912 C-30.38418579 53.51784912 -30.38418579 54.17784912 -30.38418579 54.85784912 C-30.97070923 55.09116943 -31.55723267 55.32448975 -32.16152954 55.56488037 C-34.92120959 57.17024785 -36.14775307 58.91737806 -37.94668579 61.54534912 C-38.81486938 62.7886499 -38.81486938 62.7886499 -39.70059204 64.05706787 C-43.50436317 70.38491914 -45.09757227 76.42368084 -46.44668579 83.60784912 C-46.76473127 85.29131879 -47.08871035 86.97368107 -47.41934204 88.65472412 C-47.55735229 89.39045654 -47.69536255 90.12618896 -47.83755493 90.88421631 C-48.65997541 93.8535987 -49.84157736 95.53611662 -52.48574829 97.10394287 C-53.73484985 97.69368896 -53.73484985 97.69368896 -55.00918579 98.29534912 C-55.91410767 98.73234131 -56.81902954 99.1693335 -57.75137329 99.61956787 C-59.27480616 100.33607858 -60.79994433 101.04903126 -62.32949829 101.75238037 C-66.96583261 103.95012326 -71.25640339 106.59508408 -75.57168579 109.35784912 C-76.16626587 109.73780029 -76.76084595 110.11775146 -77.3734436 110.50921631 C-81.78998214 113.37513616 -86.02808788 116.15179045 -89.32168579 120.29534912 C-91.38418579 122.85784912 -91.38418579 122.85784912 -94.07168579 124.98284912 C-103.43295442 132.58448079 -109.96094461 143.79685493 -116.38418579 153.85784912 C-116.91399048 154.66866943 -117.44379517 155.47948975 -117.98965454 156.31488037 C-119.81251461 159.63891932 -121.08254592 163.0995251 -122.32168579 166.67034912 C-122.70973389 167.78325317 -122.70973389 167.78325317 -123.10562134 168.91864014 C-127.81440783 182.72922877 -130.65341806 195.98579776 -130.16543579 210.61175537 C-130.12072607 212.22437347 -130.07646279 213.837004 -130.03262329 215.449646 C-129.964807 217.94189451 -129.88370938 220.42995138 -129.76016235 222.92010498 C-129.09448031 236.90630483 -129.09448031 236.90630483 -132.42324829 241.94329834 C-134.64100389 244.11629907 -136.93795296 245.95736618 -139.38418579 247.85784912 C-139.38418579 248.51784912 -139.38418579 249.17784912 -139.38418579 249.85784912 C-140.04418579 249.85784912 -140.70418579 249.85784912 -141.38418579 249.85784912 C-145.71332925 257.33273696 -146.85207466 262.72245656 -145.68106079 271.30316162 C-145.53410767 272.56773193 -145.53410767 272.56773193 -145.38418579 273.85784912 C-146.38418579 274.85784912 -146.38418579 274.85784912 -149.57168579 275.10784912 C-153.69274305 274.83761586 -155.81050604 273.83477835 -159.38418579 271.85784912 C-161.37286292 271.15812939 -163.3702663 270.48120515 -165.38418579 269.85784912 C-165.38418579 269.19784912 -165.38418579 268.53784912 -165.38418579 267.85784912 C-166.21949829 267.51753662 -166.21949829 267.51753662 -167.07168579 267.17034912 C-170.01665263 265.49888146 -172.06575123 263.3050856 -174.38418579 260.85784912 C-175.37418579 261.18784912 -176.36418579 261.51784912 -177.38418579 261.85784912 C-177.10187782 269.33901045 -174.20074396 274.50859027 -170.38418579 280.85784912 C-169.72418579 280.85784912 -169.06418579 280.85784912 -168.38418579 280.85784912 C-168.11606079 281.82722412 -167.84793579 282.79659912 -167.57168579 283.79534912 C-166.98387329 285.31128662 -166.98387329 285.31128662 -166.38418579 286.85784912 C-165.39418579 287.18784912 -164.40418579 287.51784912 -163.38418579 287.85784912 C-163.11606079 288.41472412 -162.84793579 288.97159912 -162.57168579 289.54534912 C-160.85134279 292.89549075 -158.29843291 295.48210419 -155.38418579 297.85784912 C-154.72418579 297.85784912 -154.06418579 297.85784912 -153.38418579 297.85784912 C-153.05418579 298.84784912 -152.72418579 299.83784912 -152.38418579 300.85784912 C-150.18800907 302.67309179 -150.18800907 302.67309179 -147.44668579 304.35784912 C-146.55078735 304.94566162 -145.65488892 305.53347412 -144.73184204 306.13909912 C-136.69016852 310.26784632 -129.03887827 311.38629885 -120.07168579 311.29534912 C-118.56807495 311.28942749 -118.56807495 311.28942749 -117.03408813 311.28338623 C-104.87904423 311.1111485 -104.87904423 311.1111485 -94.38418579 305.85784912 C-91.06303935 305.38339963 -88.49425574 305.2034921 -85.52871704 306.95159912 C-84.19865829 307.98273745 -82.88197635 309.03125166 -81.57559204 310.09222412 C-63.62554597 324.55464983 -41.07679753 332.99367349 -18.14199829 333.02581787 C-17.29297943 333.02914627 -16.44396057 333.03247467 -15.56921387 333.03590393 C-13.78602636 333.04093077 -12.00282959 333.04331358 -10.21963501 333.04315186 C-7.52302243 333.0453379 -4.82682002 333.06353799 -2.13027954 333.0824585 C6.64754832 333.11105126 15.0453226 333.00702142 23.61581421 330.85784912 C24.43259644 330.66602051 25.24937866 330.47419189 26.09091187 330.27655029 C33.82535908 328.37579837 40.78261774 324.44971653 47.80282593 320.79510498 C49.4473459 319.94494175 51.10513955 319.12057765 52.76425171 318.29925537 C55.56581861 316.88312087 58.28395554 315.38451089 60.99081421 313.79534912 C61.86479858 313.28874756 62.73878296 312.782146 63.63925171 312.26019287 C64.29151733 311.79741943 64.94378296 311.334646 65.61581421 310.85784912 C65.61581421 310.19784912 65.61581421 309.53784912 65.61581421 308.85784912 C66.58518921 308.54847412 67.55456421 308.23909912 68.55331421 307.92034912 C71.45647213 307.1626157 71.45647213 307.1626157 72.61581421 305.85784912 C78.42521532 305.38740798 83.12311309 305.90488872 88.61581421 307.85784912 C95.95096038 308.70421214 102.66799704 306.1505958 108.42831421 301.67034912 C109.15018921 301.07222412 109.87206421 300.47409912 110.61581421 299.85784912 C112.27129694 299.4727961 113.93844996 299.13232691 115.61581421 298.85784912 C117.83589154 307.63904785 118.97076541 316.99874698 116.61581421 325.85784912 C116.57693072 328.19085845 116.57095071 330.52494713 116.61581421 332.85784912 C121.69509859 331.98399374 123.70471324 328.87290006 126.61581421 324.85784912 C128.4522902 321.93846631 130.03406546 318.92099398 131.61581421 315.85784912 C132.1353064 314.93874756 132.65479858 314.019646 133.19003296 313.07269287 C140.64633327 299.36970997 141.89246879 282.77052043 137.67050171 267.75238037 C135.3463755 261.37394511 132.0363835 255.04721307 127.61581421 249.85784912 C126.95581421 249.85784912 126.29581421 249.85784912 125.61581421 249.85784912 C125.37991577 249.26488037 125.14401733 248.67191162 124.90097046 248.06097412 C123.33176695 245.37091096 121.63867788 244.31759203 119.05331421 242.60784912 C114.8778159 239.47119871 114.8778159 239.47119871 113.76815796 236.87347412 C113.32602099 233.66019699 113.60006645 230.95745997 114.10800171 227.74456787 C116.59277104 208.72652568 114.83379048 187.69481421 107.61581421 169.85784912 C107.18397827 168.74281006 106.75214233 167.627771 106.30722046 166.47894287 C102.86852892 157.98938192 98.62857273 150.48860703 93.61581421 142.85784912 C92.91714233 141.74409912 92.21847046 140.63034912 91.49862671 139.48284912 C90.56663452 138.18347412 90.56663452 138.18347412 89.61581421 136.85784912 C88.95581421 136.85784912 88.29581421 136.85784912 87.61581421 136.85784912 C87.40956421 136.16304443 87.20331421 135.46823975 86.99081421 134.75238037 C85.17477892 130.92941971 82.62715474 128.46791192 79.61581421 125.54534912 C78.79597046 124.72067139 78.79597046 124.72067139 77.95956421 123.8793335 C75.28199855 120.84912292 75.28199855 120.84912292 71.61581421 119.85784912 C71.61581421 119.19784912 71.61581421 118.53784912 71.61581421 117.85784912 C70.12944663 116.49724822 70.12944663 116.49724822 68.24081421 115.23284912 C67.61432983 114.7868335 66.98784546 114.34081787 66.34237671 113.88128662 C64.66358778 112.68787943 64.66358778 112.68787943 62.61581421 112.85784912 C62.61581421 112.19784912 62.61581421 111.53784912 62.61581421 110.85784912 C55.64172346 105.97070219 47.70578194 102.30376692 40.04940796 98.61126709 C36.62894999 96.94608887 33.63179789 95.16251589 30.61581421 92.85784912 C29.95581421 92.85784912 29.29581421 92.85784912 28.61581421 92.85784912 C28.52944702 92.08441162 28.44307983 91.31097412 28.35409546 90.51409912 C27.05094226 80.85402768 24.14512712 74.24139702 16.61581421 67.85784912 C13.00654747 65.42784775 9.33384211 63.11731616 5.61581421 60.85784912 C5.86581421 58.48284912 5.86581421 58.48284912 6.61581421 55.85784912 C8.39706421 54.75238037 8.39706421 54.75238037 10.61581421 53.85784912 C12.12792876 52.77033195 13.62694649 51.66448135 15.11581421 50.54534912 C20.58179548 46.64573861 26.34882957 44.19450834 32.61581421 41.85784912 C32.28581421 40.86784912 31.95581421 39.87784912 31.61581421 38.85784912 C8.91168545 35.73777253 -7.99062216 37.46705519 -27.38418579 50.85784912 Z " fill="#FFFFFF" transform="translate(508.3841857910156,289.14215087890625)"/>
<path d="M0 0 C1.625 2.25 1.625 2.25 3 5 C8.64936986 11.48015955 17.6615614 18.30693955 26.33984375 19.43359375 C37.17527873 19.44535861 49.07301129 18.82769347 57.75 11.5625 C60.3565913 8.93909198 62.17383142 6.21753512 64 3 C66.25 0.625 66.25 0.625 69 -1 C83.90684701 -0.02742991 100.69006572 13.79500144 111 24 C112.36639342 25.6396721 113.70513179 27.30327614 115 29 C115.763125 29.721875 116.52625 30.44375 117.3125 31.1875 C121.0643606 35.11386575 124.0455249 39.45236731 127 44 C127.47099121 44.71244873 127.94198242 45.42489746 128.42724609 46.15893555 C132.35919645 52.35080419 134.74569298 58.40360563 136.75 65.4375 C137.04003906 66.39720703 137.33007812 67.35691406 137.62890625 68.34570312 C140.93934945 79.56946603 142.34490976 90.04359597 142.3125 101.75 C142.32861328 102.92949219 142.34472656 104.10898437 142.36132812 105.32421875 C142.36785771 116.93382088 142.36785771 116.93382088 139 122 C136.43359375 123.015625 136.43359375 123.015625 133.4375 123.25 C132.36628906 123.37503906 131.29507813 123.50007812 130.19140625 123.62890625 C129.13824219 123.75136719 128.08507812 123.87382813 127 124 C119.16919905 125.55236142 113.11894832 128.86997262 107 134 C106.67 134.66 106.34 135.32 106 136 C105.34 136 104.68 136 104 136 C103.71253906 136.57621094 103.42507813 137.15242187 103.12890625 137.74609375 C102.41176327 139.17789825 101.69083993 140.60782036 100.96484375 142.03515625 C100.62582031 142.70417969 100.28679687 143.37320313 99.9375 144.0625 C99.59589844 144.73410156 99.25429688 145.40570312 98.90234375 146.09765625 C95.39350864 153.49507053 95.58796934 164.67503895 98.1171875 172.421875 C99.4370257 175.21303601 99.4370257 175.21303601 100.90625 177.640625 C102.28894407 180.62329364 102.34207267 182.74808835 102 186 C97.96077519 190.36672953 92.87526872 192.84883823 87.64453125 195.59375 C84.85505577 197.03372217 84.85505577 197.03372217 81.75 199.0625 C76.03108155 202.38002793 69.27916485 204.06084615 63 206 C61.27330078 206.53367187 61.27330078 206.53367187 59.51171875 207.078125 C35.54660482 213.36930063 8.05503749 211.59342545 -13.6953125 199.296875 C-15.99198111 197.93464472 -15.99198111 197.93464472 -18.578125 196.98828125 C-20.91932094 196.03292226 -22.62623003 194.96623959 -24.625 193.4375 C-26.87136309 191.7247752 -28.25008426 190.91663858 -31 190 C-32.70680947 188.37446717 -34.37660195 186.70884005 -36 185 C-36.33 184.67 -36.66 184.34 -37 184 C-36.65475639 179.3392113 -35.80303272 175.21548615 -34.4375 170.75 C-31.39824468 160.0083182 -32.24361855 149.66200724 -37.625 139.9375 C-42.57057986 132.12300367 -49.75623708 125.71485 -58.9140625 123.546875 C-63.5871862 122.56127073 -68.28480633 121.75534656 -73 121 C-74.55749473 116.84603627 -75.25579775 113.39517921 -75.265625 108.96484375 C-75.26820313 107.82466797 -75.27078125 106.68449219 -75.2734375 105.50976562 C-75.26570313 104.33091797 -75.25796875 103.15207031 -75.25 101.9375 C-75.25773437 100.78572266 -75.26546875 99.63394531 -75.2734375 98.44726562 C-75.22186709 75.45975647 -68.02006691 55.66291017 -55 37 C-54.46761719 36.20078125 -53.93523437 35.4015625 -53.38671875 34.578125 C-52.32148133 33.00697837 -51.17276014 31.49260381 -50 30 C-49.34 30 -48.68 30 -48 30 C-47.6596875 29.195625 -47.6596875 29.195625 -47.3125 28.375 C-43.25665026 21.03584333 -36.99663261 16.43908736 -30 12 C-29.34 12 -28.68 12 -28 12 C-28 11.34 -28 10.68 -28 10 C-27.16339844 9.59265625 -26.32679688 9.1853125 -25.46484375 8.765625 C-23.04890113 7.53450204 -20.71845106 6.28084321 -18.37890625 4.921875 C-17.75306641 4.56609375 -17.12722656 4.2103125 -16.48242188 3.84375 C-15.19863205 3.11239466 -13.92249812 2.36744002 -12.65429688 1.609375 C-8.11475429 -0.9286632 -5.21125369 -1.45732937 0 0 Z M8 67 C7.13375 67.61875 6.2675 68.2375 5.375 68.875 C-3.30439521 76.64077466 -7.97587482 86.4594654 -9.22265625 98.07421875 C-9.65806519 108.61868732 -6.53147304 119.67379982 0.31640625 127.72265625 C8.29919048 136.15965295 16.65508475 142.43690284 28.53125 143.23828125 C37.44557846 143.40498621 45.79970578 143.02608862 54 139 C54.495 137.515 54.495 137.515 55 136 C56.0828125 135.5978125 56.0828125 135.5978125 57.1875 135.1875 C60.9182157 133.61230893 63.4942389 131.16879754 66 128 C66 127.34 66 126.68 66 126 C66.66 126 67.32 126 68 126 C68.495 124.02 68.495 124.02 69 122 C69.66 122 70.32 122 71 122 C74.29948888 113.70751971 74.29948888 113.70751971 76 105 C76.103125 103.845 76.20625 102.69 76.3125 101.5 C76.18028899 91.67861095 72.25573713 80.00674957 65.875 72.5 C64.13990566 70.79176832 64.13990566 70.79176832 62 71 C61.505 69.515 61.505 69.515 61 68 C44.83339333 56.21622338 24.45338069 55.20532935 8 67 Z " fill="#FFFFFF" transform="translate(467,400)"/>
</svg>
