<?xml version="1.0" encoding="UTF-8"?>
<svg version="1.1" xmlns="http://www.w3.org/2000/svg" width="1000" height="1000">
<path d="M0 0 C3.06084668 1.37586072 5.2576393 2.96774421 7.6875 5.2734375 C8.38069336 5.92795898 9.07388672 6.58248047 9.78808594 7.25683594 C10.51801758 7.95583008 11.24794922 8.65482422 12 9.375 C12.75313477 10.08946289 13.50626953 10.80392578 14.28222656 11.54003906 C19.78296585 16.77872696 25.17431292 22.11544007 30.484375 27.546875 C32.91316836 30.08495417 32.91316836 30.08495417 35.890625 31.828125 C36.58671875 32.54484375 37.2828125 33.2615625 38 34 C37.5619855 40.83401608 35.95426764 47.53978026 34.56640625 54.234375 C34.32840805 55.38995911 34.09040985 56.54554321 33.84519958 57.73614502 C33.34334425 60.16704629 32.83981874 62.59760328 32.3347168 65.02783203 C31.56243044 68.7503353 30.79953691 72.47468538 30.03710938 76.19921875 C29.54744609 78.56522243 29.05723082 80.93111195 28.56640625 83.296875 C28.3392543 84.41044373 28.11210236 85.52401245 27.87806702 86.67132568 C27.55279274 88.22378998 27.55279274 88.22378998 27.22094727 89.80761719 C27.03299088 90.71614441 26.84503448 91.62467163 26.65138245 92.56072998 C25.77472069 95.84361662 24.94289922 98.27627785 22.21240234 100.37207031 C21.51066895 100.77006836 20.80893555 101.16806641 20.0859375 101.578125 C18.94511719 102.23554687 18.94511719 102.23554687 17.78125 102.90625 C16.59015625 103.57140625 16.59015625 103.57140625 15.375 104.25 C14.17230469 104.93835938 14.17230469 104.93835938 12.9453125 105.640625 C10.9687706 106.77007752 8.98714011 107.88933402 7 109 C8.49466797 109.95519531 8.49466797 109.95519531 10.01953125 110.9296875 C14.24141701 114.05132088 17.94986515 117.05289359 20 122 C20.34813651 130.82172477 17.55342701 139.63131866 15 148 C11.35309897 148 10.96686065 147.37062449 8.41015625 144.921875 C7.71398193 144.2611499 7.01780762 143.6004248 6.30053711 142.91967773 C5.56198486 142.20368408 4.82343262 141.48769043 4.0625 140.75 C3.30267822 140.02433838 2.54285645 139.29867676 1.76000977 138.55102539 C-3.24310048 133.75477299 -8.16359114 128.87986162 -13.03295898 123.94824219 C-16.17862064 120.77477178 -19.44088678 117.8245856 -22.84375 114.93359375 C-27.77204744 110.51419659 -32.35567714 105.7139877 -37 101 C-34.11159728 97.86423848 -31.28901438 95.84630752 -27.546875 93.8203125 C-26.46414307 93.22798828 -25.38141113 92.63566406 -24.26586914 92.02539062 C-23.10563232 91.39826172 -21.94539551 90.77113281 -20.75 90.125 C-18.30363026 88.78813793 -15.86055673 87.44531952 -13.41796875 86.1015625 C-12.79873032 85.76147156 -12.17949188 85.42138062 -11.54148865 85.07098389 C-2.52770234 80.107072 6.32776561 74.86836437 15.19482422 69.6484375 C20.12238735 66.75279727 25.06159414 63.87709725 30 61 C23.00378609 53.89855514 16.03570536 46.92943016 8 41 C7.88785156 42.23621094 7.77570312 43.47242188 7.66015625 44.74609375 C7.00831038 50.61270662 5.73324269 56.30969283 4.4375 62.0625 C4.08655273 63.64708008 4.08655273 63.64708008 3.72851562 65.26367188 C3.15653688 67.84341273 2.58028727 70.42211775 2 73 C1.34 73 0.68 73 0 73 C-1.59044469 68.78762984 -3.11273924 64.55350186 -4.625 60.3125 C-5.07101562 59.13365234 -5.51703125 57.95480469 -5.9765625 56.74023438 C-9.04686847 47.985065 -9.12589233 41.94871334 -7 33 C-6.71554435 31.63082989 -6.43634001 30.26056123 -6.16162109 28.8894043 C-5.27250768 24.47993091 -4.32684739 20.08378503 -3.375 15.6875 C-3.04653183 14.15697465 -2.7184048 12.62637604 -2.390625 11.09570312 C-1.59766725 7.39628192 -0.80014514 3.697873 0 0 Z " fill="#FFFFFF" transform="translate(878,520)"/>
<path d="M0 0 C1.66031493 1.41818567 3.3196114 2.83757603 4.97460938 4.26196289 C6.19895206 5.31260122 7.42807436 6.35775323 8.66601562 7.39233398 C16.32123137 13.89733423 23.24358262 21.18370479 30.30029297 28.32080078 C32.06264128 30.10142174 33.82733945 31.87965913 35.59375 33.65625 C36.15529785 34.22174561 36.7168457 34.78724121 37.29541016 35.36987305 C40.91880814 38.99273359 44.64111137 42.42375682 48.62695312 45.65039062 C50 47 50 47 51 50 C48.25670004 51.52405553 45.51338706 53.04808758 42.77001953 54.57202148 C40.35534865 55.91347287 37.94099741 57.25549734 35.52685547 58.59790039 C29.84105134 61.75895063 24.15413736 64.91781955 18.45741272 68.05915833 C16.66418747 69.04815547 14.87166848 70.03842116 13.0793457 71.02905273 C10.84618163 72.26282498 8.61172938 73.49426971 6.37573242 74.72290039 C-1.23243163 78.93130806 -8.62233132 83.40283436 -16 88 C-9.4 94.6 -2.8 101.2 4 108 C4.5775 105.69 5.155 103.38 5.75 101 C8.875 88.5 8.875 88.5 12 76 C14 77 14 77 14.96142578 79.29736328 C16.02660294 82.57007384 17.08630978 85.84376659 18.125 89.125 C18.49753906 90.25421875 18.87007812 91.3834375 19.25390625 92.546875 C19.60582031 93.64773438 19.95773438 94.74859375 20.3203125 95.8828125 C20.64273926 96.88715332 20.96516602 97.89149414 21.29736328 98.92626953 C22.78934449 105.45303933 21.72407517 111.27669853 20.28515625 117.671875 C20.10995956 118.47610901 19.93476288 119.28034302 19.7542572 120.10894775 C19.1971175 122.65750857 18.62976925 125.20367708 18.0625 127.75 C17.68491682 129.47512264 17.30795757 131.20038196 16.93164062 132.92578125 C16.57086601 134.57043402 16.20955662 136.21496958 15.84765625 137.859375 C15.6778273 138.6312616 15.50799835 139.40314819 15.33302307 140.19842529 C14.66655033 143.18731229 13.96914999 146.09255002 13 149 C9.06785699 147.41060574 6.66979654 144.83657498 3.75 141.8125 C0.65980391 138.64886139 -2.42725157 135.53900515 -5.8125 132.6875 C-7.2114835 131.46191991 -8.60667896 130.23201374 -10 129 C-10.56783203 128.51160645 -11.13566406 128.02321289 -11.72070312 127.52001953 C-13.69988468 125.79603764 -15.63150732 124.02768226 -17.5625 122.25 C-18.20743408 121.70174561 -18.85236816 121.15349121 -19.5168457 120.58862305 C-22.11615116 118.1360156 -23.92932401 116.32019232 -24.12640381 112.63883972 C-23.29856386 105.64716673 -22.10368601 98.79569302 -20.63671875 91.91015625 C-20.4034639 90.80320908 -20.17020905 89.6962619 -19.92988586 88.55577087 C-19.43826937 86.23655295 -18.94312122 83.91808106 -18.44458008 81.6003418 C-17.68506436 78.05111825 -16.94870722 74.49756166 -16.21289062 70.94335938 C-15.73057613 68.68199059 -15.2469002 66.42091166 -14.76171875 64.16015625 C-14.54488937 63.09974625 -14.32806 62.03933624 -14.10466003 60.9467926 C-13.77961235 59.46891518 -13.77961235 59.46891518 -13.44799805 57.96118164 C-13.26448288 57.09723282 -13.08096771 56.233284 -12.89189148 55.34315491 C-11.34679919 51.28392723 -8.25961976 48.92201098 -4.546875 46.859375 C-3.928125 46.51132812 -3.309375 46.16328125 -2.671875 45.8046875 C-2.03765625 45.45664062 -1.4034375 45.10859375 -0.75 44.75 C-0.1003125 44.38648438 0.549375 44.02296875 1.21875 43.6484375 C2.80918426 42.75966541 4.40414448 41.87900064 6 41 C6 40.34 6 39.68 6 39 C4.61361328 38.02160156 4.61361328 38.02160156 3.19921875 37.0234375 C-0.68968717 34.20421505 -4.11262488 31.53028522 -6 27 C-6.30029584 17.8175163 -2.87205889 8.61617668 0 0 Z " fill="#FFFFFF" transform="translate(109,328)"/>
<path d="M0 0 C1.9375 2.01171875 1.9375 2.01171875 4 4.6875 C4.78632812 5.68394531 5.57265625 6.68039063 6.3828125 7.70703125 C6.8046582 8.24279785 7.22650391 8.77856445 7.66113281 9.33056641 C9.99424418 12.23972314 12.43749431 15.05328595 14.875 17.875 C15.89736768 19.06360235 16.91950207 20.25240539 17.94140625 21.44140625 C18.44816895 22.03066895 18.95493164 22.61993164 19.47705078 23.22705078 C22.8417873 27.14412622 26.19606043 31.06922574 29.5078125 35.03125 C31.06312617 36.88397475 32.63821184 38.72049002 34.2421875 40.53125 C37.2395267 44.04620199 38.86689625 46.11264169 39.5625 50.75 C39.42429863 52.17232242 39.22799448 53.58928415 39 55 C38.855625 56.09570312 38.71125 57.19140625 38.5625 58.3203125 C37.27962538 67.44074924 37.27962538 67.44074924 36 70 C37.8871875 69.5359375 37.8871875 69.5359375 39.8125 69.0625 C40.63492188 68.89492188 41.45734375 68.72734375 42.3046875 68.5546875 C44.11489553 68.18215193 45.91348735 67.74846001 47.6953125 67.2578125 C50.77088344 66.61816384 52.90569858 66.39335981 56 67 C60.04068422 70.13226763 62.95147849 73.92324835 66 78 C66.71929688 78.90363281 67.43859375 79.80726563 68.1796875 80.73828125 C69.81966415 82.80307113 71.42388283 84.88633294 73 87 C70.40019666 89.59980334 68.78182906 89.5329818 65.16088867 90.05322266 C63.93589157 90.23325836 62.71089447 90.41329407 61.44877625 90.5987854 C60.10521317 90.78749201 58.76160962 90.97591062 57.41796875 91.1640625 C56.04265921 91.3623573 54.6674415 91.56128996 53.29231262 91.76083374 C50.40709197 92.17773526 47.52115043 92.58905959 44.63452148 92.99609375 C40.94128617 93.51700098 37.24963534 94.04823978 33.55842113 94.58326149 C30.71663736 94.99457569 27.87431602 95.40206359 25.03179359 95.80823898 C23.67097165 96.00282595 22.31026119 96.19819425 20.94966698 96.39436722 C19.04272521 96.66837936 17.13502273 96.93708147 15.22729492 97.20556641 C14.14300705 97.35941803 13.05871918 97.51326965 11.9415741 97.67178345 C9.26173892 97.97079555 6.69299866 98.06334727 4 98 C4.59121661 88.67150078 5.6721907 79.48389838 7.03125 70.23828125 C7.22948627 68.87163772 7.42743802 67.50495289 7.62512207 66.13822937 C8.03588965 63.30503925 8.44964915 60.47230821 8.86572266 57.63989258 C9.3990314 54.0080693 9.92522033 50.37525568 10.44931793 46.74209309 C10.85507982 43.93395937 11.26421498 41.12632545 11.67442322 38.31883812 C11.96475761 36.32815512 12.25247769 34.33709139 12.54016113 32.34602356 C12.71704468 31.14684799 12.89392822 29.94767242 13.07617188 28.7121582 C13.23081909 27.65438675 13.38546631 26.5966153 13.5447998 25.50679016 C14 23 14 23 15 21 C11.04835651 21.54687584 7.09738203 22.09833027 3.14697266 22.65405273 C1.80274815 22.84249087 0.4583469 23.0296726 -0.88623047 23.21557617 C-2.81784229 23.48286563 -4.74877676 23.75503583 -6.6796875 24.02734375 C-7.84226074 24.18968506 -9.00483398 24.35202637 -10.20263672 24.51928711 C-12.94417548 24.8515583 -12.94417548 24.8515583 -15 26 C-14.45472656 26.59425781 -13.90945313 27.18851563 -13.34765625 27.80078125 C1.93434886 44.59792532 1.93434886 44.59792532 5 51 C-10.61546306 47.73962859 -23.26489209 44.27351429 -33 31 C-34.49306854 29.18178588 -35.99307456 27.36924624 -37.5 25.5625 C-38.22058594 24.66789062 -38.94117188 23.77328125 -39.68359375 22.8515625 C-41.36374716 20.78324549 -43.05902559 18.74007495 -44.78515625 16.7109375 C-45.24792969 16.16493896 -45.71070313 15.61894043 -46.1875 15.05639648 C-47.49838884 13.51298315 -48.81353995 11.97319297 -50.12890625 10.43359375 C-52 8 -52 8 -52 6 C-45.2389138 4.97388478 -38.47608911 3.95989642 -31.71191406 2.9543457 C-29.41071351 2.61078847 -27.10992636 2.26445022 -24.80957031 1.9152832 C-21.50430188 1.41407447 -18.19767905 0.92286364 -14.890625 0.43359375 C-13.3466806 0.19617714 -13.3466806 0.19617714 -11.77154541 -0.04603577 C-10.33050446 -0.25636696 -10.33050446 -0.25636696 -8.86035156 -0.47094727 C-7.59460297 -0.66080956 -7.59460297 -0.66080956 -6.30328369 -0.85450745 C-3.90733702 -1.00585328 -2.25153861 -0.81620638 0 0 Z " fill="#FFFFFF" transform="translate(801,207)"/>
<path d="M0 0 C-1.58504949 15.24659948 -3.96913415 30.37260392 -6.30938721 45.51745605 C-6.8412596 48.96377524 -7.36968485 52.41062292 -7.8984375 55.85742188 C-8.92900024 62.57212302 -9.96325954 69.28624998 -11 76 C-9.10171492 75.85123228 -7.20364337 75.69973841 -5.30566406 75.54711914 C-4.24865295 75.46305313 -3.19164185 75.37898712 -2.1026001 75.29237366 C2.06395088 74.89973854 6.14112287 74.2167698 10.25 73.4375 C11.00667969 73.29892578 11.76335937 73.16035156 12.54296875 73.01757812 C14.36293174 72.68353428 16.18162107 72.34256191 18 72 C16.83984375 70.65808594 16.83984375 70.65808594 15.65625 69.2890625 C9.62883216 62.29842065 3.69333777 55.26737821 -2 48 C-1.505 47.01 -1.505 47.01 -1 46 C28.34531447 55.40396575 28.34531447 55.40396575 36 67 C37.48437949 68.82531471 38.98470671 70.63776599 40.5 72.4375 C41.22058594 73.33210937 41.94117188 74.22671875 42.68359375 75.1484375 C44.36374716 77.21675451 46.05902559 79.25992505 47.78515625 81.2890625 C48.24792969 81.83506104 48.71070313 82.38105957 49.1875 82.94360352 C50.49838884 84.48701685 51.81353995 86.02680703 53.12890625 87.56640625 C55 90 55 90 55 92 C48.05854814 92.99886248 41.11678748 93.99555683 34.17480469 94.99072266 C31.81177669 95.32973754 29.44882064 95.66925429 27.0859375 96.00927734 C23.6954992 96.4970795 20.3048088 96.98309402 16.9140625 97.46875 C15.85256989 97.62186646 14.79107727 97.77498291 13.69741821 97.93273926 C12.71655243 98.07288452 11.73568665 98.21302979 10.72509766 98.35742188 C9.85905914 98.48177612 8.99302063 98.60613037 8.10073853 98.73425293 C6 99 6 99 4 99 C2.62508701 97.49212839 1.32635538 95.91460239 0.0625 94.3125 C-0.74058594 93.30832031 -1.54367188 92.30414062 -2.37109375 91.26953125 C-3.01280518 90.46636475 -3.01280518 90.46636475 -3.66748047 89.64697266 C-5.89732932 86.89091543 -8.20018076 84.19768676 -10.5 81.5 C-14.61731107 76.65648154 -18.68209215 71.77734275 -22.6484375 66.80859375 C-24.3947077 64.72293216 -26.14601748 62.78971023 -28.0390625 60.84765625 C-35.67861048 52.83816307 -35.67861048 52.83816307 -36.54296875 47.89453125 C-36.30681615 44.80053187 -35.75773624 42.00701644 -35 39 C-34.6385624 36.91791579 -34.28404714 34.83461433 -33.9375 32.75 C-33.6308975 31.16551409 -33.32069766 29.5816933 -33 28 C-34.16015625 28.2165625 -34.16015625 28.2165625 -35.34375 28.4375 C-36.3853125 28.623125 -37.426875 28.80875 -38.5 29 C-39.5209375 29.185625 -40.541875 29.37125 -41.59375 29.5625 C-43.27984375 29.7790625 -43.27984375 29.7790625 -45 30 C-45.64412842 30.10473633 -46.28825684 30.20947266 -46.9519043 30.31738281 C-50.16186899 30.63107776 -52.16169015 30.62493426 -54.80517578 28.65429688 C-56.60734491 26.76743452 -58.21616576 24.81360053 -59.8125 22.75 C-60.37130859 22.06808594 -60.93011719 21.38617187 -61.50585938 20.68359375 C-63.03238252 18.8095546 -64.52095645 16.91157873 -66 15 C-66.93392578 13.83210937 -66.93392578 13.83210937 -67.88671875 12.640625 C-69 11 -69 11 -69 9 C-62.43891748 8.03836628 -55.87761297 7.07825785 -49.31616211 6.11914062 C-47.09052646 5.79363397 -44.86493926 5.46779589 -42.6394043 5.14160156 C-35.42765205 4.08472081 -28.2148546 3.03550292 -21 2 C-19.78464569 1.82519104 -19.78464569 1.82519104 -18.54473877 1.64685059 C-16.46930327 1.35057797 -14.39314625 1.06040304 -12.31640625 0.7734375 C-11.2188501 0.62052246 -10.12129395 0.46760742 -8.99047852 0.31005859 C-5.97081785 -0.00302566 -3.03352779 -0.05628699 0 0 Z " fill="#FFFFFF" transform="translate(194,693)"/>
<path d="M0 0 C2.35416743 3.01361795 4.35279746 6.11739555 6.25 9.4375 C6.79140625 10.36433594 7.3328125 11.29117188 7.890625 12.24609375 C9.20333244 15.50475131 8.9066644 16.66567374 8 20 C7.00708008 22.20629883 7.00708008 22.20629883 5.76953125 24.45703125 C5.30305176 25.31063232 4.83657227 26.1642334 4.35595703 27.04370117 C3.84661621 27.95740479 3.33727539 28.8711084 2.8125 29.8125 C2.2851123 30.76938721 1.75772461 31.72627441 1.21435547 32.7121582 C-3.42940168 41.08733634 -8.23542221 49.36730239 -13.10229492 57.61450195 C-14.20113907 59.47844344 -15.29448929 61.34563663 -16.38183594 63.21630859 C-17.5021713 65.14359644 -18.63662177 67.06272232 -19.78222656 68.97509766 C-20.34135742 69.93851074 -20.90048828 70.90192383 -21.4765625 71.89453125 C-22.23960693 73.18580933 -22.23960693 73.18580933 -23.01806641 74.50317383 C-24.19499929 77.49583732 -23.94689848 78.96831997 -23 82 C-22.505 82.99 -22.505 82.99 -22 84 C-17.14971616 77.05004064 -13.00390214 69.80471229 -8.9375 62.375 C-7.62419011 59.98989467 -6.30808005 57.60633742 -4.9921875 55.22265625 C-4.66197098 54.6235997 -4.33175446 54.02454315 -3.99153137 53.40733337 C-0.55832754 47.18460234 2.93430712 40.99610314 6.4375 34.8125 C6.99896729 33.8210498 7.56043457 32.82959961 8.13891602 31.80810547 C9.42508673 29.53824894 10.71203245 27.26883729 12 25 C16.71805645 26.57268548 17.96476367 30.49441008 20.3125 34.6875 C21.03276367 35.8930957 21.03276367 35.8930957 21.76757812 37.12304688 C25.11262567 43.06062764 25.11262567 43.06062764 24.64453125 46.96484375 C22.28871471 51.31275219 19.89873947 55.6217944 17.375 59.875 C16.859375 60.75414062 16.34375 61.63328125 15.8125 62.5390625 C14.54664427 64.6957056 13.27571593 66.84917988 12 69 C10.68 68.67 9.36 68.34 8 68 C-1.41692156 83.9598048 -10.5357016 100.05507789 -19.48925781 116.27783203 C-21.29732123 119.53573558 -23.13846213 122.77240821 -25 126 C-28.96459044 124.52028481 -30.11115682 122.54134037 -31.98828125 118.828125 C-32.53033203 117.76980469 -33.07238281 116.71148438 -33.63085938 115.62109375 C-34.46327148 113.95240234 -34.46327148 113.95240234 -35.3125 112.25 C-36.12750977 110.65091797 -36.12750977 110.65091797 -36.95898438 109.01953125 C-38.0731915 106.82795029 -39.16719579 104.62599421 -40.24194336 102.41479492 C-41.49156832 99.98756199 -42.74166834 97.79396654 -44.21313477 95.5168457 C-49.45387779 87.08805245 -49.45387779 87.08805245 -48.27709961 81.67431641 C-46.55230142 78.13320763 -44.53194399 74.92675064 -42.3125 71.6875 C-41.5417156 70.47415153 -40.77698397 69.25693879 -40.01806641 68.03613281 C-38.46235897 65.54280425 -36.8830555 63.06723589 -35.28466797 60.60107422 C-31.88161895 55.30115656 -28.89425539 49.77437173 -25.875 44.25 C-21.15050641 35.76082386 -16.33128943 27.33017452 -11.4375 18.9375 C-10.57970947 17.46555176 -10.57970947 17.46555176 -9.70458984 15.96386719 C-6.55570267 10.58525777 -3.33166936 5.26738787 0 0 Z " fill="#FFFFFF" transform="translate(850,642)"/>
<path d="M0 0 C2.93655634 2.55529987 4.42345811 5.43493256 6.1796875 8.8828125 C6.77910156 10.05070313 7.37851563 11.21859375 7.99609375 12.421875 C8.62267849 13.65610654 9.24897889 14.89048248 9.875 16.125 C10.79777302 17.9337706 11.72219893 19.74167488 12.64825439 21.54876709 C13.54249449 23.29648231 14.43095684 25.04714987 15.31933594 26.79785156 C17.14569048 30.27758227 19.13101677 33.62702376 21.25439453 36.93310547 C22.34264149 39.94983722 21.80926943 41.92501883 21 45 C19.67163086 47.71533203 19.67163086 47.71533203 17.96484375 50.5078125 C17.01049438 52.08961304 17.01049438 52.08961304 16.03686523 53.70336914 C15.6954953 54.25960968 15.35412537 54.81585022 15.00241089 55.38894653 C13.15882002 58.39443023 11.34767398 61.41945592 9.53125 64.44140625 C9.15443588 65.06633469 8.77762177 65.69126312 8.38938904 66.33512878 C4.46752199 72.85182329 0.69439912 79.44972591 -3.0625 86.0625 C-4.37614102 88.3711854 -5.68994335 90.67977903 -7.00390625 92.98828125 C-7.65504395 94.13248535 -8.30618164 95.27668945 -8.97705078 96.45556641 C-12.46095826 102.56734526 -15.98139103 108.65815742 -19.5 114.75 C-20.15363525 115.88187744 -20.80727051 117.01375488 -21.48071289 118.17993164 C-22.98665799 120.78690128 -24.4930411 123.3936163 -26 126 C-26.66 126 -27.32 126 -28 126 C-29.37216028 123.61298157 -30.72243979 121.21744946 -32.0625 118.8125 C-32.45244141 118.13896484 -32.84238281 117.46542969 -33.24414062 116.77148438 C-33.60830078 116.11083984 -33.97246094 115.45019531 -34.34765625 114.76953125 C-34.68804932 114.16729736 -35.02844238 113.56506348 -35.37915039 112.94458008 C-36.48772143 109.47239435 -35.40211326 106.81699874 -33.83935547 103.6418457 C-33.35354004 102.82804443 -32.86772461 102.01424316 -32.3671875 101.17578125 C-31.81530762 100.2417749 -31.26342773 99.30776855 -30.69482422 98.34545898 C-30.09428223 97.34458252 -29.49374023 96.34370605 -28.875 95.3125 C-27.6034267 93.16450037 -26.33262121 91.01604607 -25.0625 88.8671875 C-24.06669922 87.18834473 -24.06669922 87.18834473 -23.05078125 85.47558594 C-19.6095865 79.65819114 -16.24639117 73.79551117 -12.875 67.9375 C-12.24835449 66.85057861 -11.62170898 65.76365723 -10.97607422 64.64379883 C-9.81875536 62.63602835 -8.6643884 60.62655199 -7.51367188 58.61499023 C-6.58237092 57.00609273 -5.63408368 55.40671755 -4.65820312 53.82446289 C-2.24539782 50.01605446 -2.24539782 50.01605446 -2.75 45.5625 C-3.1625 44.716875 -3.575 43.87125 -4 43 C-6.81784037 45.5083512 -8.45723723 48.29922938 -10.30078125 51.57421875 C-10.94192871 52.70609619 -11.58307617 53.83797363 -12.24365234 55.00415039 C-12.74986115 55.90546188 -12.74986115 55.90546188 -13.26629639 56.82498169 C-15.04144491 59.98521416 -16.83259614 63.13637234 -18.62109375 66.2890625 C-18.98454895 66.93083939 -19.34800415 67.57261627 -19.72247314 68.23384094 C-23.39073209 74.70564552 -27.12372779 81.13847734 -30.875 87.5625 C-31.46321533 88.57207764 -32.05143066 89.58165527 -32.6574707 90.62182617 C-34.70933756 94.13405536 -36.74314981 97.61472472 -39 101 C-43.58806673 99.47064442 -44.57486556 95.93976613 -46.75 91.8125 C-47.17410156 91.05646484 -47.59820312 90.30042969 -48.03515625 89.52148438 C-49.76117913 86.28027203 -50.96053359 83.79252821 -51.14453125 80.09765625 C-49.35082295 75.2430123 -46.67038104 71.00385626 -43.9375 66.625 C-43.36966797 65.69816406 -42.80183594 64.77132812 -42.21679688 63.81640625 C-40.81972384 61.538825 -39.4139959 59.26709935 -38 57 C-37.34 57.33 -36.68 57.66 -36 58 C-36 58.66 -36 59.32 -36 60 C-35.34 60 -34.68 60 -34 60 C-33.75765625 59.33613281 -33.5153125 58.67226563 -33.265625 57.98828125 C-31.67518807 54.23308295 -29.74399473 50.7413068 -27.75 47.1875 C-27.31961426 46.41704346 -26.88922852 45.64658691 -26.44580078 44.8527832 C-17.95060736 29.72155856 -9.23913506 14.6907986 0 0 Z " fill="#FFFFFF" transform="translate(178,229)"/>
<path d="M0 0 C3.77621546 0.60214641 6.74358824 1.69984365 10.140625 3.44140625 C11.121521 3.93922607 12.10241699 4.4370459 13.11303711 4.94995117 C14.14823486 5.48209229 15.18343262 6.0142334 16.25 6.5625 C18.40149844 7.65531165 20.5538488 8.74644762 22.70703125 9.8359375 C23.76873535 10.3731543 24.83043945 10.91037109 25.92431641 11.46386719 C30.93267495 13.9652636 35.99993135 16.33526996 41.08496094 18.67602539 C45.90481335 20.90481335 45.90481335 20.90481335 47 22 C47.22608057 23.31691466 47.39408103 24.64394468 47.53515625 25.97265625 C47.66567383 27.19952148 47.66567383 27.19952148 47.79882812 28.45117188 C47.9293457 29.7437793 47.9293457 29.7437793 48.0625 31.0625 C48.15337891 31.89716797 48.24425781 32.73183594 48.33789062 33.59179688 C48.87347005 38.75832621 49.09006229 43.80640816 49 49 C48.01 49 47.02 49 46 49 C46.07516846 49.70886353 46.15033691 50.41772705 46.2277832 51.14807129 C46.93831644 57.85570916 47.64482453 64.56375766 48.34690857 71.27228546 C48.70792354 74.72049609 49.07044742 78.16853364 49.43652344 81.61621094 C49.85811894 85.587416 50.27296388 89.55930178 50.6875 93.53125 C50.81874268 94.75863892 50.94998535 95.98602783 51.08520508 97.25061035 C51.70131416 103.20323235 52.15544235 109.01546965 52 115 C50.6640522 114.59179373 49.33139832 114.17280893 48 113.75 C47.2575 113.51796875 46.515 113.2859375 45.75 113.046875 C44.8425 112.70140625 43.935 112.3559375 43 112 C42.32807617 111.7839209 41.65615234 111.5678418 40.96386719 111.34521484 C38.64623085 110.44959828 36.91267456 109.59280748 35 108 C33.59863486 104.79505557 33.46714648 101.58977656 33.25 98.125 C33.05083344 95.98306806 32.85161054 93.84114136 32.65234375 91.69921875 C32.55421387 90.4982959 32.45608398 89.29737305 32.35498047 88.06005859 C31.96611733 83.43329274 31.4540049 78.82146693 30.94140625 74.20703125 C30.20482565 67.52344767 29.46831501 60.8400024 28.76953125 54.15234375 C28.69158829 53.43335403 28.61364532 52.71436432 28.53334045 51.97358704 C28.08364865 47.61575918 27.92967758 43.37248413 28 39 C27.05125 38.690625 26.1025 38.38125 25.125 38.0625 C22 37 22 37 20 36 C20.33 36.66 20.66 37.32 21 38 C21.29364192 40.06857537 21.53658096 42.14441931 21.75610352 44.22216797 C21.89617325 45.53047577 22.03624298 46.83878357 22.18055725 48.18673706 C22.33015122 49.62187217 22.47959727 51.05702271 22.62890625 52.4921875 C22.78413897 53.95951245 22.9396553 55.42680743 23.09544373 56.89407349 C23.42143866 59.97226432 23.74479521 63.05071715 24.06616211 66.12939453 C24.47791831 70.07307231 24.89492254 74.01617239 25.31375217 77.95910454 C25.635403 80.99067872 25.95489112 84.02247763 26.27366447 87.05435562 C26.42664777 88.50805238 26.58015403 89.9616942 26.7341938 91.41527939 C26.94932499 93.44965396 27.16169797 95.48429776 27.37329102 97.51904297 C27.49462906 98.67661102 27.6159671 99.83417908 27.74098206 101.02682495 C28 104 28 104 28 108 C27.34 108 26.68 108 26 108 C24.54949669 106.16129144 23.19097068 104.24977391 21.875 102.3125 C21.48119141 101.73395264 21.08738281 101.15540527 20.68164062 100.55932617 C8.0723912 81.86989667 8.0723912 81.86989667 7.15209961 72.85986328 C7.07392502 72.12472504 6.99575043 71.38958679 6.91520691 70.63217163 C6.65709112 68.19527176 6.40462067 65.75782322 6.15234375 63.3203125 C5.97469191 61.62878517 5.7967554 59.93728772 5.61854553 58.24581909 C5.24546833 54.69684317 4.87503391 51.14760459 4.5065918 47.59814453 C4.03429803 43.04912958 3.55676067 38.50068477 3.07739925 33.95240974 C2.70943473 30.45760209 2.3436192 26.96257224 1.97851753 23.46746445 C1.80320042 21.79048166 1.62736471 20.113553 1.45100212 18.43667984 C1.20475136 16.09097331 0.9612378 13.74499871 0.71850586 11.39892578 C0.645271 10.70579285 0.57203613 10.01265991 0.49658203 9.29852295 C0.1754205 6.16783022 0 3.15386893 0 0 Z " fill="#FFFFFF" transform="translate(867,410)"/>
<path d="M0 0 C6.38348504 1.09734586 11.85750545 2.97924194 17 7 C17.9128418 9.51635742 17.9128418 9.51635742 18.19921875 12.60546875 C18.32949463 13.85078369 18.45977051 15.09609863 18.59399414 16.37915039 C18.68778854 17.45835251 18.68778854 17.45835251 18.78347778 18.55935669 C19.02917757 21.32889021 19.31845972 24.09221206 19.61108398 26.85717773 C20.19624804 32.44433868 20.74765205 38.0342332 21.28710938 43.62597656 C21.6276154 47.1520837 21.97362167 50.67762111 22.3203125 54.203125 C22.5393837 56.45048955 22.75814507 58.69788432 22.9765625 60.9453125 C23.07965729 61.99631134 23.18275208 63.04731018 23.28897095 64.13015747 C23.38261932 65.10572601 23.4762677 66.08129456 23.57275391 67.08642578 C23.65554596 67.94132599 23.73833801 68.7962262 23.82363892 69.67703247 C23.98325629 71.77945759 24 73.89152447 24 76 C25.98 76.66 27.96 77.32 30 78 C29.33122684 63.49003352 27.89922796 49.07342303 26.4375 34.625 C26.08636203 31.13239254 25.73621749 27.63969106 25.38771057 24.14682007 C25.17238706 21.99090954 24.95544171 19.83516022 24.73667908 17.67959595 C24.63980301 16.71363495 24.54292694 15.74767395 24.44311523 14.75244141 C24.35730698 13.9043692 24.27149872 13.056297 24.18309021 12.18252563 C24 10 24 10 24 7 C27.58070465 8.19356822 27.99921339 9.09079333 29.99609375 12.19140625 C30.55490234 13.05443359 31.11371094 13.91746094 31.68945312 14.80664062 C32.26630859 15.71607422 32.84316406 16.62550781 33.4375 17.5625 C34.01048828 18.44486328 34.58347656 19.32722656 35.17382812 20.23632812 C36.8243761 22.80616864 38.45489578 25.3650939 40 28 C40.68489502 29.09570312 41.36979004 30.19140625 42.07543945 31.3203125 C45.20705147 37.7220646 45.29940434 45.0013865 45.921875 51.99609375 C46.0718301 53.55505938 46.22307762 55.11390117 46.37554932 56.67262268 C46.69084993 59.92878796 46.99586029 63.18568415 47.29248047 66.44360352 C47.67082013 70.59832403 48.06663092 74.75112637 48.46918869 78.9035635 C48.85517486 82.8921817 49.23270071 86.88158712 49.609375 90.87109375 C49.68082481 91.62116636 49.75227463 92.37123898 49.82588959 93.14404106 C50.54702209 100.77513358 51.19096133 108.32775324 51 116 C45.6815281 113.52018238 40.37956694 111.0081277 35.08740234 108.47265625 C32.92175695 107.43966772 30.75248061 106.41427335 28.58056641 105.39453125 C25.02303463 103.72039865 21.47968647 102.01882407 17.9375 100.3125 C16.78975098 99.77858643 15.64200195 99.24467285 14.45947266 98.69458008 C13.38874512 98.17275146 12.31801758 97.65092285 11.21484375 97.11328125 C10.25698975 96.65735596 9.29913574 96.20143066 8.31225586 95.73168945 C4.60544713 92.95559461 4.23860471 89.62256875 3.58935547 85.20751953 C3.51604004 84.27536621 3.44272461 83.34321289 3.3671875 82.3828125 C3.28339844 81.36445312 3.19960937 80.34609375 3.11328125 79.296875 C3.03464844 78.25015625 2.95601563 77.2034375 2.875 76.125 C2.74544922 74.52011719 2.74544922 74.52011719 2.61328125 72.8828125 C2.40217102 70.25566301 2.19795597 67.62816789 2 65 C3.32 65.33 4.64 65.66 6 66 C5.92483154 65.2616391 5.84966309 64.5232782 5.7722168 63.76254272 C5.06284433 56.7892586 4.35636287 49.81568898 3.65309143 42.84178734 C3.29147035 39.25682947 2.92874968 35.6719901 2.56347656 32.08740234 C2.21072207 28.62525797 1.86090764 25.16282778 1.51309204 21.70018387 C1.31568207 19.74249368 1.11526306 17.78510767 0.91479492 15.82772827 C0.79467041 14.62693634 0.6745459 13.42614441 0.55078125 12.18896484 C0.44419189 11.13639496 0.33760254 10.08382507 0.2277832 8.99935913 C-0.00098554 5.98702282 -0.03977949 3.01974988 0 0 Z " fill="#FFFFFF" transform="translate(81,472)"/>
<path d="M0 0 C2.29297237 8.84659993 4.31277278 17.73823878 6.21704102 26.67480469 C6.69153939 28.89389099 7.1748424 31.11095447 7.65820312 33.328125 C7.96408282 34.75769682 8.26944044 36.18738047 8.57421875 37.6171875 C8.84838623 38.89190918 9.12255371 40.16663086 9.4050293 41.47998047 C10.80587446 49.7677874 10.80587446 49.7677874 8.88598633 52.70336914 C8.11677856 53.36260376 8.11677856 53.36260376 7.33203125 54.03515625 C6.76806641 54.53466797 6.20410156 55.03417969 5.62304688 55.54882812 C5.02556641 56.04833984 4.42808594 56.54785156 3.8125 57.0625 C2.65155405 58.07331247 1.49138747 59.08502082 0.33203125 60.09765625 C-0.23177246 60.57992676 -0.79557617 61.06219727 -1.37646484 61.55908203 C-2.92842559 62.93647636 -4.36554889 64.37366623 -5.80078125 65.87109375 C-8 68 -8 68 -10 68 C-10 67.01 -10 66.02 -10 65 C-15.08766768 69.31134782 -19.88737123 73.80698266 -24.53125 78.59375 C-26.56500307 80.57601565 -28.63144304 82.4295608 -30.78125 84.28125 C-35.06013534 87.99387092 -39.03487903 91.95743526 -43 96 C-48.14381863 101.24428384 -53.40431018 106.23771079 -59 111 C-59.66 110.67 -60.32 110.34 -61 110 C-61.88671875 107.015625 -61.88671875 107.015625 -62.6875 103.25 C-62.95949219 102.01765625 -63.23148438 100.7853125 -63.51171875 99.515625 C-63.98466388 96.11042004 -64.22521493 94.18450259 -63 91 C-60.76953125 88.59765625 -60.76953125 88.59765625 -57.8125 86.0625 C-56.71727262 85.10342521 -55.62494934 84.14102655 -54.53515625 83.17578125 C-53.95910645 82.66611816 -53.38305664 82.15645508 -52.78955078 81.63134766 C-49.66488352 78.78291292 -46.71567885 75.76215531 -43.75 72.75 C-40.2363462 69.19664389 -36.75109624 65.67303534 -32.9375 62.4375 C-29.20606132 59.21340605 -25.53573281 55.93443489 -21.9375 52.5625 C-21.33993896 52.03648193 -20.74237793 51.51046387 -20.12670898 50.96850586 C-16.90684758 47.94600308 -16.90684758 47.94600308 -15.85595703 43.80810547 C-16.11625561 41.34077589 -16.11625561 41.34077589 -17 38 C-17.59425781 38.59949463 -18.18851563 39.19898926 -18.80078125 39.81665039 C-21.04266107 42.07574527 -23.28691531 44.33244873 -25.53271484 46.58764648 C-26.49751459 47.55742273 -27.46140895 48.5281007 -28.42431641 49.49975586 C-33.49471215 54.61499901 -38.59374963 59.59795343 -44.06542969 64.28149414 C-48.54454385 68.26035388 -52.64770064 72.65214825 -56.8203125 76.94726562 C-60.65776078 80.84380505 -64.29930451 84.18996279 -69 87 C-68.36541162 80.84872326 -66.6511427 75.28726159 -64.6875 69.4375 C-64.39166016 68.51775391 -64.09582031 67.59800781 -63.79101562 66.65039062 C-61.37260786 59.38472065 -58.26129056 53.96475423 -52.75 48.5625 C-52.04359375 47.86253906 -51.3371875 47.16257812 -50.609375 46.44140625 C-48.50977278 44.47695807 -46.37996844 42.59112108 -44.203125 40.71484375 C-39.93280197 37.00102027 -35.96118831 33.03855526 -32 29 C-27.46902877 24.38053323 -22.86788237 19.96737502 -17.96386719 15.74560547 C-14.02955693 12.24854948 -10.41816596 8.41769371 -6.76171875 4.63476562 C-6.17261719 4.03470703 -5.58351563 3.43464844 -4.9765625 2.81640625 C-4.45143066 2.27443604 -3.92629883 1.73246582 -3.38525391 1.17407227 C-2 0 -2 0 0 0 Z " fill="#FFFFFF" transform="translate(796,736)"/>
<path d="M0 0 C1.62106548 2.94924939 2.48443268 5.63806994 3.125 8.9375 C3.29257812 9.77152344 3.46015625 10.60554687 3.6328125 11.46484375 C4.59729648 18.12388739 4.59729648 18.12388739 2.75 20.83349609 C2.1725 21.39117676 1.595 21.94885742 1 22.5234375 C0.04613403 23.46086792 0.04613403 23.46086792 -0.92700195 24.41723633 C-1.61109131 25.06329834 -2.29518066 25.70936035 -3 26.375 C-3.6911792 27.04619873 -4.3823584 27.71739746 -5.09448242 28.40893555 C-8.99588467 32.17436522 -12.96876962 35.83481862 -17.11328125 39.33203125 C-20.41689726 42.25261932 -23.45305294 45.44635221 -26.55078125 48.58203125 C-28.70303236 50.70682142 -30.89628594 52.71537184 -33.1875 54.6875 C-33.81914062 55.23921875 -34.45078125 55.7909375 -35.1015625 56.359375 C-36.41341065 57.49307093 -37.74289708 58.60656016 -39.0859375 59.703125 C-39.73820312 60.27546875 -40.39046875 60.8478125 -41.0625 61.4375 C-41.65160156 61.93121094 -42.24070313 62.42492187 -42.84765625 62.93359375 C-44.73497263 66.31796787 -43.67664191 69.2610701 -43 73 C-42.55720703 72.55197021 -42.11441406 72.10394043 -41.65820312 71.64233398 C-39.60823317 69.57129904 -37.55414567 67.50439303 -35.5 65.4375 C-34.80390625 64.73302734 -34.1078125 64.02855469 -33.390625 63.30273438 C-29.32533715 59.21862575 -25.16088457 55.3345785 -20.79492188 51.57446289 C-18.41725825 49.48883276 -16.2058044 47.26542074 -14 45 C-10.46596868 41.42280493 -6.84634149 38.06254225 -3.01953125 34.8046875 C0.18785825 31.93850965 3.1422475 28.82716681 6.1171875 25.72265625 C8 24 8 24 10 24 C7.24405982 37.38599514 3.363853 52.51955235 -7 62 C-8.47993888 63.52008189 -9.95906542 65.04095498 -11.4375 66.5625 C-14.80999077 69.90081012 -18.30060475 73.03491183 -21.90234375 76.12109375 C-24.364259 78.32627296 -26.6772364 80.64886677 -29 83 C-32.52056144 86.56349512 -36.12849564 89.90393883 -39.9375 93.15234375 C-42.39943107 95.35782367 -44.689478 97.69914594 -47 100.0625 C-51.05471166 104.17370145 -55.2440018 107.73191185 -60 111 C-62.84430083 100.52628046 -65.10401934 89.94678557 -67.25 79.3125 C-67.4546286 78.31074738 -67.4546286 78.31074738 -67.66339111 77.28875732 C-68.05702948 75.35635619 -68.44270174 73.42233766 -68.828125 71.48828125 C-69.0540332 70.35946533 -69.27994141 69.23064941 -69.51269531 68.06762695 C-69.96180332 65.24045155 -70.33438848 62.84245229 -70 60 C-68.6706543 58.19482422 -68.6706543 58.19482422 -66.82421875 56.5546875 C-66.16099609 55.95269531 -65.49777344 55.35070312 -64.81445312 54.73046875 C-64.11255859 54.11816406 -63.41066406 53.50585938 -62.6875 52.875 C-61.31629745 51.64335028 -59.94519993 50.41158363 -58.57421875 49.1796875 C-57.96151123 48.64069824 -57.34880371 48.10170898 -56.7175293 47.54638672 C-55.08868219 46.07984549 -53.53463017 44.5642721 -52 43 C-50.68 43.66 -49.36 44.32 -48 45 C-47.5875 44.57589844 -47.175 44.15179688 -46.75 43.71484375 C-43.66028301 40.57684993 -40.53471928 37.55070183 -37.1875 34.6875 C-33.97666245 31.92381971 -30.97732835 29.01380404 -28 26 C-25.10408042 23.06881809 -22.19757429 20.23596826 -19.0625 17.5625 C-14.62720713 13.77759631 -10.58801889 9.61860218 -6.515625 5.453125 C-4.4284752 3.41782985 -2.38124522 1.66909711 0 0 Z " fill="#FFFFFF" transform="translate(266,151)"/>
<path d="M0 0 C1.89105469 0.27154907 1.89105469 0.27154907 3.8203125 0.54858398 C4.6544165 0.668069 5.48852051 0.78755402 6.34790039 0.91065979 C8.22737737 1.17997232 10.10676964 1.44987655 11.98608398 1.72032166 C16.85113223 2.41785121 21.71714535 3.10059491 26.58984375 3.74267578 C31.15081012 4.34434877 35.70328798 4.99239523 40.25390625 5.66772461 C42.11100769 5.93469945 43.97058402 6.18491073 45.83203125 6.41967773 C61.3463068 8.39517288 61.3463068 8.39517288 65.23901367 12.17285156 C66.58122996 14.78139024 67.32908489 17.15006472 68 20 C68.58223036 21.49931448 69.1815857 22.99213232 69.80078125 24.4765625 C70.31047512 25.85725221 70.81449643 27.24005077 71.3125 28.625 C71.70791992 29.70201172 71.70791992 29.70201172 72.11132812 30.80078125 C72.74609152 32.53195413 73.37384298 34.26569567 74 36 C66.71641723 35.58583549 59.56602806 34.69466869 52.375 33.5 C51.58109863 33.36940186 50.78719727 33.23880371 49.96923828 33.10424805 C44.25898463 32.12949232 44.25898463 32.12949232 42 31 C42.46224976 32.0669812 42.46224976 32.0669812 42.93383789 33.15551758 C44.32001511 36.37032487 45.69139795 39.59123614 47.0625 42.8125 C47.54783203 43.93205078 48.03316406 45.05160156 48.53320312 46.20507812 C48.98759766 47.27822266 49.44199219 48.35136719 49.91015625 49.45703125 C50.33433838 50.44678955 50.75852051 51.43654785 51.19555664 52.45629883 C52 55 52 55 51 58 C41.7454512 49.66068689 32.72281399 41.09480889 23.84301758 32.35791016 C22.31804256 30.86477008 20.78507412 29.37975194 19.24438477 27.90283203 C2.75725671 12.08454944 2.75725671 12.08454944 0 0 Z " fill="#FFFFFF" transform="translate(826,336)"/>
<path d="M0 0 C4.14540059 1.37203698 6.56095148 3.19559445 9.6171875 6.2890625 C10.47183594 7.14886719 11.32648438 8.00867188 12.20703125 8.89453125 C13.08746094 9.79558594 13.96789062 10.69664062 14.875 11.625 C16.18404297 12.94177734 16.18404297 12.94177734 17.51953125 14.28515625 C21.95081622 18.76974991 26.20770982 23.33845902 30.31542969 28.11914062 C32.07698774 30.08595849 33.91905025 31.91843336 35.82421875 33.74609375 C36.46037109 34.35646484 37.09652344 34.96683594 37.75195312 35.59570312 C39.04654115 36.82758658 40.34872154 38.05153824 41.65820312 39.26757812 C46.16857615 43.63082379 49.12991874 47.95973359 51 54 C51 54.99 51 55.98 51 57 C47.33280477 56.67232721 43.66629928 56.33754598 40 56 C39.03206512 55.91186035 38.06413025 55.8237207 37.06686401 55.73291016 C-8.07990297 51.4826079 -8.07990297 51.4826079 -15.39599609 44.140625 C-20.11987229 37.25605669 -22 29.31748044 -22 21 C-11.17126036 21.50720092 -0.60054575 23.87575751 10 26 C9.69707031 25.2479126 9.39414063 24.4958252 9.08203125 23.72094727 C7.71957691 20.33551024 6.359754 16.94902246 5 13.5625 C4.52304688 12.37849609 4.04609375 11.19449219 3.5546875 9.97460938 C3.10351562 8.84990234 2.65234375 7.72519531 2.1875 6.56640625 C1.76855469 5.52427979 1.34960938 4.48215332 0.91796875 3.40844727 C0 1 0 1 0 0 Z " fill="#FFFFFF" transform="translate(121,604)"/>
<path d="M0 0 C2.3125 0.625 2.3125 0.625 6 2 C7.3214225 2.43968864 7.3214225 2.43968864 8.66954041 2.88825989 C11.97528934 4.26689938 14.33919007 5.58461105 17 8 C19.02369106 13.17128624 19.35006289 18.40437983 19.75390625 23.88671875 C19.90825346 25.4697498 20.06718852 27.05233952 20.23045349 28.63447571 C20.64816007 32.80124024 21.00423939 36.97104084 21.347229 41.14453125 C21.70107334 45.32444916 22.11125951 49.49874234 22.51757812 53.67382812 C23.12933418 60.02017611 23.70986 66.36843015 24.26220703 72.72021484 C24.89137859 79.94337915 25.60281372 87.15450292 26.46424866 94.35392761 C27.02258829 99.25354354 27.08006277 104.07793191 27 109 C25.33037566 108.34077563 23.66448015 107.67210716 22 107 C21.00742187 106.63648438 20.01484375 106.27296875 18.9921875 105.8984375 C15.33697622 104.11205605 12.41745863 102.28243961 10 99 C8.91149126 95.64454602 8.65124998 92.2898229 8.36328125 88.78515625 C8.2559819 87.74636826 8.14868256 86.70758026 8.03813171 85.63731384 C7.80175156 83.33769428 7.57621153 81.03694213 7.35986328 78.73535156 C6.98252069 74.81856614 6.55851169 70.90822853 6.11914062 66.99804688 C5.31640114 59.82969458 4.54395229 52.65848969 3.78295898 45.4855957 C3.38765485 41.76043188 2.98586298 38.03599666 2.58262348 34.31168461 C2.26796607 31.39592902 1.95762101 28.47972596 1.64845848 25.5633831 C1.50208412 24.18906746 1.35420104 22.81491152 1.20467567 21.44093513 C0.42454887 14.25661757 -0.17915197 7.22841382 0 0 Z " fill="#FFFFFF" transform="translate(917,434)"/>
<path d="M0 0 C4.6188849 1.31381615 7.96699445 3.13822843 11.8125 6 C12.76769531 6.70125 13.72289063 7.4025 14.70703125 8.125 C18.28146993 11.04788001 18.24018326 13.46975247 18.6955719 17.95716858 C18.77613327 18.79146896 18.85669464 19.62576935 18.93969727 20.48535156 C19.07158951 21.80269539 19.07158951 21.80269539 19.20614624 23.14665222 C19.49684548 26.0609331 19.78175588 28.97574755 20.06640625 31.890625 C20.2664969 33.91366122 20.46685341 35.93667116 20.66746521 37.95965576 C21.08771583 42.20642103 21.50519076 46.4534474 21.9206543 50.70068359 C22.45284628 56.13961662 22.99114572 61.57792355 23.53144932 67.01605606 C23.94630085 71.19716862 24.35825335 75.37856283 24.76930046 79.56005096 C24.96664792 81.56475524 25.16480909 83.56937959 25.36380196 85.5739212 C25.6419864 88.38136337 25.91635328 91.18915327 26.18969727 93.99707031 C26.27228287 94.82327377 26.35486847 95.64947723 26.43995667 96.50071716 C26.84322576 100.6866296 27.08751717 104.78810083 27 109 C20.91896596 107.35647729 14.95746249 104.9200411 10 101 C8.27957321 97.54210269 8.18306191 94.24371652 8.04296875 90.421875 C7.86689904 88.16857868 7.69026926 85.91532608 7.51318359 83.66210938 C7.4353363 82.43613037 7.35748901 81.21015137 7.27728271 79.94702148 C6.98228306 75.74780558 6.5799612 71.57063104 6.13916016 67.38476562 C6.06093458 66.64020363 5.98270901 65.89564163 5.90211296 65.12851715 C5.74090329 63.59603105 5.57952126 62.06356307 5.41797256 60.53111267 C5.01162411 56.6252162 4.62977279 52.71696139 4.24804688 48.80859375 C4.09302483 47.22379486 3.93799551 45.63899669 3.78295898 44.05419922 C3.70577637 43.26474915 3.62859375 42.47529907 3.54907227 41.66192627 C3.22946172 38.40339941 2.90601544 35.14525743 2.58262348 31.88710403 C2.26943505 28.72686071 1.95858545 25.56639074 1.64845848 22.40584564 C1.50124605 20.90830304 1.35333055 19.41082937 1.20467567 17.91342926 C0.99906754 15.83866943 0.79660246 13.76362609 0.5949707 11.68847656 C0.47966507 10.51367737 0.36435944 9.33887817 0.24555969 8.128479 C0.03140466 5.40010162 -0.04884286 2.73463888 0 0 Z " fill="#FFFFFF" transform="translate(56,454)"/>
<path d="M0 0 C5.15516346 4.72982697 8.41692403 10.16183313 10 17 C8.92456597 21.76680893 6.49013393 25.31398935 3.75 29.3125 C3.03125338 30.4400584 2.31779046 31.57100045 1.609375 32.70507812 C0.15011691 35.03007906 -1.33184875 37.33773837 -2.83398438 39.63525391 C-6.08610252 44.64089838 -9.02803773 49.82502061 -12 55 C-13.14324818 56.95908265 -14.2877934 58.91740893 -15.43359375 60.875 C-17.98128937 65.24207098 -20.51333279 69.61795021 -23.03515625 74 C-23.37243744 74.58587891 -23.70971863 75.17175781 -24.05722046 75.77539062 C-25.68680007 78.6068348 -27.31443228 81.4393741 -28.93945312 84.2734375 C-30.61556092 87.18872685 -32.3023489 90.09721007 -34 93 C-34.48581543 93.83273437 -34.97163086 94.66546875 -35.47216797 95.5234375 C-36.58969078 97.38529501 -37.78600219 99.19956118 -39 101 C-39.66 101 -40.32 101 -41 101 C-42.39792017 98.61513619 -43.76766607 96.22031184 -45.125 93.8125 C-45.52332031 93.13896484 -45.92164062 92.46542969 -46.33203125 91.77148438 C-49.14159296 86.71920235 -49.14159296 86.71920235 -48.5078125 83.5 C-48.01023437 82.675 -47.51265625 81.85 -47 81 C-46.36765158 79.8071216 -45.7376819 78.61298082 -45.109375 77.41796875 C-44.3268057 76.00565057 -43.54004769 74.59564843 -42.75 73.1875 C-42.31453857 72.40761719 -41.87907715 71.62773437 -41.43041992 70.82421875 C-36.63693883 62.28319798 -31.68184046 53.83679253 -26.73046875 45.38671875 C-22.82546081 38.71622414 -18.97584301 32.01435522 -15.125 25.3125 C-10.2207907 16.78600606 -5.26497212 8.30957262 0 0 Z " fill="#FFFFFF" transform="translate(165,205)"/>
<path d="M0 0 C0.99 0.495 0.99 0.495 2 1 C2.88671875 4.01953125 2.88671875 4.01953125 3.6875 7.8125 C3.95949219 9.05644531 4.23148438 10.30039062 4.51171875 11.58203125 C4.96948272 14.78637907 5.08482821 16.07258509 4 19 C2.45288086 20.90356445 2.45288086 20.90356445 0.46484375 22.86328125 C-0.26283203 23.58580078 -0.99050781 24.30832031 -1.74023438 25.05273438 C-2.50658203 25.79845703 -3.27292969 26.54417969 -4.0625 27.3125 C-4.80177734 28.04662109 -5.54105469 28.78074219 -6.30273438 29.53710938 C-9.79868679 32.98412457 -13.33979993 36.33711201 -17.05859375 39.54296875 C-21.25042873 43.16048035 -25.12458272 47.04889097 -29 51 C-32.88115824 54.95696211 -36.7592614 58.84669242 -40.96484375 62.4609375 C-46.18862558 66.95887516 -50.9331754 71.91757665 -55.73242188 76.859375 C-59.90617292 81.09768816 -64.04369177 84.70447837 -69 88 C-70.96738188 81.40266643 -72.613137 74.83432767 -71 68 C-66.32474372 60.31037884 -58.87854512 54.64679284 -52 49 C-46.21296465 44.09661376 -40.81383102 38.91062212 -35.5 33.5 C-31.44793407 29.37412595 -27.41085943 25.29508092 -23.0234375 21.5234375 C-18.48732401 17.62162053 -14.31677329 13.39031317 -10.125 9.125 C-8.62991839 7.60449184 -7.13263356 6.08614589 -5.6328125 4.5703125 C-4.98199707 3.90789551 -4.33118164 3.24547852 -3.66064453 2.56298828 C-2 1 -2 1 0 0 Z " fill="#FFFFFF" transform="translate(806,790)"/>
<path d="M0 0 C2.72499896 2.45414063 4.43900167 5.13446167 6.25 8.3125 C6.79140625 9.23675781 7.3328125 10.16101563 7.890625 11.11328125 C9.25104891 14.65325754 8.85736761 16.33649523 8 20 C6.82348633 22.59521484 6.82348633 22.59521484 5.33203125 25.2109375 C4.49768555 26.68820312 4.49768555 26.68820312 3.64648438 28.1953125 C3.04126953 29.24460937 2.43605469 30.29390625 1.8125 31.375 C0.87180664 33.03015625 0.87180664 33.03015625 -0.08789062 34.71875 C-4.90208337 43.16402719 -9.80445601 51.55845025 -14.72705078 59.94091797 C-19.70542408 68.43590562 -24.52556646 77.01503098 -29.29492188 85.62890625 C-32.38367036 91.19085192 -35.57300635 96.63933954 -39 102 C-41.56756002 99.05206072 -43.77507058 95.95431903 -45.8125 92.625 C-46.47185547 91.56152344 -46.47185547 91.56152344 -47.14453125 90.4765625 C-48.34173774 87.01067706 -48.12013668 84.41263181 -47 81 C-45.17981063 77.28006686 -43.03717298 73.7794635 -40.875 70.25 C-39.5885075 68.10053523 -38.3047512 65.94943092 -37.0234375 63.796875 C-36.35795898 62.68119141 -35.69248047 61.56550781 -35.00683594 60.41601562 C-31.72941248 54.83721892 -28.61742203 49.1692669 -25.5 43.5 C-20.53502995 34.50435987 -15.48772992 25.56400196 -10.3125 16.6875 C-9.44818359 15.2025 -9.44818359 15.2025 -8.56640625 13.6875 C-5.83741411 9.02872056 -3.06197225 4.44768232 0 0 Z " fill="#FFFFFF" transform="translate(876,691)"/>
<path d="M0 0 C0.27981946 1.81882652 0.53994941 3.6419175 0.7265625 5.47265625 C0.97078601 8.04703046 0.97078601 8.04703046 1.5234375 10.74609375 C2.00948209 14.81266678 2.23810801 18.1759172 -0.15136719 21.69628906 C-3.71414126 25.87145202 -7.82660137 29.45197691 -12 33 C-12.74507812 33.65613281 -13.49015625 34.31226563 -14.2578125 34.98828125 C-15.48872664 36.06726248 -16.72819641 37.13657164 -17.9765625 38.1953125 C-21.09638096 40.97785329 -23.99733693 43.97684025 -26.93188477 46.95141602 C-30.15398526 50.20033476 -33.49358303 53.22458921 -36.97265625 56.19140625 C-40.31743054 59.17528004 -43.41335157 62.40619732 -46.5625 65.59375 C-49.24721302 68.24404362 -52.05152023 70.69224995 -54.921875 73.13671875 C-58.34979592 76.21024935 -61.51286351 79.54601891 -64.703125 82.86328125 C-66.76763827 84.78384036 -68.41901348 85.92853541 -71 87 C-71.48220263 85.12577848 -71.96061833 83.25058246 -72.4375 81.375 C-72.70433594 80.33085937 -72.97117188 79.28671875 -73.24609375 78.2109375 C-73.49488281 77.15132813 -73.74367187 76.09171875 -74 75 C-74.4640625 73.50146484 -74.4640625 73.50146484 -74.9375 71.97265625 C-75 69 -75 69 -72.75390625 66.03515625 C-71.70800144 65.02539791 -70.64292632 64.03523211 -69.5625 63.0625 C-69.00771973 62.53672363 -68.45293945 62.01094727 -67.88134766 61.46923828 C-64.34026342 58.1378438 -60.69528697 54.92337689 -56.9921875 51.7734375 C-53.65679203 48.80428153 -50.57480673 45.58181657 -47.4375 42.40625 C-44.74716094 39.75040247 -41.93426475 37.29864568 -39.0625 34.84375 C-36.61075311 32.65203687 -34.31114427 30.33932896 -32 28 C-29.10408042 25.06881809 -26.19757429 22.23596826 -23.0625 19.5625 C-19.66506559 16.66124262 -16.51148217 13.55259908 -13.375 10.375 C-3.08562586 0 -3.08562586 0 0 0 Z " fill="#FFFFFF" transform="translate(266,121)"/>
<path d="M0 0 C6.54331744 -0.11799562 13.05561692 -0.02455865 19 3 C24.28247669 8.48200223 26.24347852 16.57935105 28.625 23.625 C29.38689684 25.69216022 30.15686831 27.75636089 30.93457031 29.81762695 C32.53202654 34.06925448 34.09271209 38.33191745 35.63183594 42.60498047 C37.90584379 48.84034266 40.40998172 54.95984919 43.0078125 61.06640625 C43.41009064 62.01344421 43.81236877 62.96048218 44.22683716 63.93621826 C45.39869282 66.68773428 46.57396179 69.43776947 47.75 72.1875 C49.19618947 75.57116671 50.62795291 78.96028617 52.046875 82.35546875 C52.36351105 83.09084366 52.68014709 83.82621857 53.00637817 84.58387756 C55.11399487 89.65801539 55.11399487 89.65801539 54 93 C38.85370674 92.71210527 38.85370674 92.71210527 34.50549316 88.57965088 C31.35598936 83.97087369 29.82927129 78.57690058 28.125 73.3125 C27.50816031 71.59567895 26.88295135 69.88184505 26.25 68.17089844 C25.2385707 65.43035122 24.23462579 62.68858781 23.25738525 59.93563843 C19.40477471 49.10149845 14.87416558 38.56146284 10.37493896 27.98373413 C8.17208888 22.80282669 5.98562525 17.61531355 3.8125 12.421875 C3.42585175 11.51110703 3.03920349 10.60033905 2.64083862 9.66197205 C2.29143219 8.82573807 1.94202576 7.98950409 1.58203125 7.12792969 C1.27499268 6.39950867 0.9679541 5.67108765 0.65161133 4.92059326 C0 3 0 3 0 0 Z " fill="#FFFFFF" transform="translate(882,320)"/>
<path d="M0 0 C2.41706304 0.30964862 4.83361887 0.62261115 7.25 0.9375 C8.27287109 1.06801758 8.27287109 1.06801758 9.31640625 1.20117188 C11.21333441 1.44979838 13.10684878 1.72408328 15 2 C15.67087646 2.03843018 16.34175293 2.07686035 17.03295898 2.11645508 C20.24101686 3.55743329 20.93286141 6.5717199 22.14453125 9.671875 C22.43120667 10.36930313 22.71788208 11.06673126 23.01324463 11.78529358 C23.96098739 14.10119189 24.88664486 16.42527442 25.8125 18.75 C26.46991257 20.3686358 27.12870605 21.98671137 27.78881836 23.60424805 C29.17069633 26.99816233 30.54320812 30.39564763 31.90820312 33.79638672 C33.95852969 38.90367032 36.03157901 44.00149792 38.109375 49.09765625 C41.47823697 57.36851741 44.83147094 65.64550275 48.16485596 73.9307251 C49.02699447 76.06688543 49.89563081 78.20032508 50.76513672 80.33349609 C51.32135201 81.70537812 51.87750692 83.07728464 52.43359375 84.44921875 C52.92786865 85.66311279 53.42214355 86.87700684 53.93139648 88.12768555 C55 91 55 91 55 93 C52.77058595 92.68926976 50.54147788 92.37634375 48.3125 92.0625 C47.07113281 91.88847656 45.82976562 91.71445312 44.55078125 91.53515625 C43.37902344 91.35855469 42.20726562 91.18195313 41 91 C40.17999512 90.99258789 39.35999023 90.98517578 38.51513672 90.97753906 C36 90 36 90 34.06567383 86.5456543 C33.42590235 84.97995467 32.80799807 83.40521899 32.20703125 81.82421875 C31.86297745 80.96741013 31.51892365 80.1106015 31.16444397 79.22782898 C30.02873979 76.38798965 28.92085159 73.53811331 27.8125 70.6875 C27.03017864 68.71680715 26.24580879 66.74692637 25.45947266 64.77783203 C23.81152849 60.64735181 22.17269483 56.5134081 20.53857422 52.37744141 C18.01625951 46.0152577 15.42600043 39.68227587 12.81640625 33.35546875 C12.39923843 32.34322739 11.98207062 31.33098602 11.55226135 30.28807068 C9.92473652 26.34077686 8.29598474 22.39399192 6.66567993 18.44784546 C5.54196764 15.72441862 4.4227868 12.99917257 3.3046875 10.2734375 C2.96808609 9.46090012 2.63148468 8.64836273 2.28468323 7.811203 C0 2.22798724 0 2.22798724 0 0 Z " fill="#FFFFFF" transform="translate(62,584)"/>
<path d="M0 0 C2.25493074 1.52398323 4.3314239 3.04543314 6.4375 4.75 C6.98470703 5.18054688 7.53191406 5.61109375 8.09570312 6.0546875 C11.78491043 8.97112594 15.39681143 11.9783215 19 15 C17.53248655 17.93502691 15.61188733 18.09448482 12.56567383 19.23071289 C11.40389114 19.66779068 10.24210846 20.10486847 9.04512024 20.55519104 C7.76587233 21.02799094 6.48650631 21.5004714 5.20703125 21.97265625 C3.89986524 22.46018015 2.59287593 22.94817805 1.28605652 23.43663025 C-1.45875138 24.46075866 -4.20535852 25.47985898 -6.95336914 26.49536133 C-10.4658555 27.79369642 -13.97409261 29.1030818 -17.48108959 30.41616154 C-20.18284556 31.42656258 -22.88657319 32.43159697 -25.59093666 33.43499565 C-26.88439966 33.91550435 -28.17730471 34.39751784 -29.46962547 34.88109016 C-31.28400078 35.55895294 -33.10130186 36.22896868 -34.91870117 36.89868164 C-35.95048996 37.28125626 -36.98227875 37.66383087 -38.04533386 38.05799866 C-41.0254791 39.0081232 -43.90622895 39.56465325 -47 40 C-47.50763865 37.31374546 -48.00627197 34.62631617 -48.5 31.9375 C-48.64308594 31.18533203 -48.78617188 30.43316406 -48.93359375 29.65820312 C-49.06894531 28.91376953 -49.20429687 28.16933594 -49.34375 27.40234375 C-49.46943359 26.72679443 -49.59511719 26.05124512 -49.72460938 25.35522461 C-50.09013524 22.2291359 -50.03998759 19.14402388 -50 16 C-45.35975255 14.22064254 -40.7190266 12.44254045 -36.07788086 10.66552734 C-34.50386019 10.06266987 -32.92996368 9.45948811 -31.35620117 8.85595703 C-27.5984752 7.41499756 -23.83921951 5.97845688 -20.07568359 4.55273438 C-17.57901493 3.60665886 -15.09607895 2.63952708 -12.61572266 1.65039062 C-11.65585449 1.27591797 -10.69598633 0.90144531 -9.70703125 0.515625 C-8.90370361 0.19368164 -8.10037598 -0.12826172 -7.27270508 -0.45996094 C-4.47999759 -1.12356272 -2.73497695 -0.82766844 0 0 Z " fill="#FFFFFF" transform="translate(767,177)"/>
<path d="M0 0 C0.50642925 3.06147257 1.00399322 6.12432299 1.5 9.1875 C1.64308594 10.05181641 1.78617187 10.91613281 1.93359375 11.80664062 C2.06894531 12.64775391 2.20429688 13.48886719 2.34375 14.35546875 C2.53227539 15.51018677 2.53227539 15.51018677 2.72460938 16.68823242 C3.01737666 19.14586847 3.0458968 21.52730999 3 24 C-5.69345679 27.70236544 -14.46363754 31.16779186 -23.30249023 34.50415039 C-24.7397604 35.04832438 -26.1756151 35.59625006 -27.61010742 36.14770508 C-29.71497012 36.95679214 -31.82367948 37.75497548 -33.93359375 38.55078125 C-34.57010361 38.79758133 -35.20661346 39.04438141 -35.8624115 39.29866028 C-39.35269552 40.59897477 -42.27998585 41.5393358 -46 41 C-48.18823242 39.76245117 -48.18823242 39.76245117 -50.35546875 38.04296875 C-51.14244141 37.42486328 -51.92941406 36.80675781 -52.74023438 36.16992188 C-53.95163086 35.18862305 -53.95163086 35.18862305 -55.1875 34.1875 C-56.00669922 33.54490234 -56.82589844 32.90230469 -57.66992188 32.24023438 C-63.69870627 27.4519406 -63.69870627 27.4519406 -66 24 C-57.91709433 20.560114 -49.77595594 17.36399135 -41.5234375 14.35546875 C-40.39096588 13.94081863 -39.25849426 13.52616852 -38.09170532 13.09895325 C-35.72422717 12.23299647 -33.35625063 11.36840111 -30.98779297 10.50512695 C-27.34830133 9.17776269 -23.71119396 7.8440073 -20.07421875 6.50976562 C-17.76576479 5.66628399 -15.45717593 4.82317143 -13.1484375 3.98046875 C-12.0589682 3.58055222 -10.9694989 3.18063568 -9.84701538 2.76860046 C-8.84481964 2.40434464 -7.8426239 2.04008881 -6.81005859 1.66479492 C-5.92691986 1.34234299 -5.04378113 1.01989105 -4.13388062 0.68766785 C-2 0 -2 0 0 0 Z " fill="#FFFFFF" transform="translate(278,781)"/>
<path d="M0 0 C3.69767603 1.5847183 6.36888684 3.84040332 9.3125 6.5625 C10.21613281 7.36816406 11.11976563 8.17382812 12.05078125 9.00390625 C14.87522362 13.3452836 13.92648995 16.08811111 13 21 C12.87681396 22.0202124 12.75362793 23.0404248 12.62670898 24.09155273 C10.1493708 44.58235781 10.1493708 44.58235781 4.95361328 50.22070312 C0.07153123 53.87543481 -5.24190415 56.08667046 -11 58 C-12.3587029 55.28259421 -11.7405614 53.91627864 -11.11962891 50.95532227 C-10.9025528 49.90405655 -10.68547668 48.85279083 -10.46182251 47.76966858 C-10.21918671 46.63009201 -9.9765509 45.49051544 -9.7265625 44.31640625 C-9.48336273 43.14996078 -9.24016296 41.98351532 -8.98959351 40.78172302 C-8.47309642 38.31044675 -7.95335874 35.83984591 -7.43066406 33.36987305 C-6.62938818 29.58323746 -5.83723082 25.79478771 -5.046875 22.00585938 C-4.54480245 19.60926357 -4.04221538 17.21277548 -3.5390625 14.81640625 C-3.30047516 13.67885391 -3.06188782 12.54130157 -2.81607056 11.36927795 C-2.59269012 10.31486008 -2.36930969 9.2604422 -2.13916016 8.17407227 C-1.94295074 7.2452272 -1.74674133 6.31638214 -1.54458618 5.35939026 C-1 3 -1 3 0 0 Z " fill="#FFFFFF" transform="translate(918,558)"/>
<path d="M0 0 C-3.71160892 19.06594896 -7.79649227 38.0377525 -12 57 C-15 57 -15 57 -17.15625 55.13671875 C-17.9296875 54.32847656 -18.703125 53.52023437 -19.5 52.6875 C-20.66015625 51.48673828 -20.66015625 51.48673828 -21.84375 50.26171875 C-22.5553125 49.51535156 -23.266875 48.76898438 -24 48 C-24.84316772 47.41557129 -24.84316772 47.41557129 -25.70336914 46.81933594 C-27 45 -27 45 -26.76147461 41.69360352 C-26.49402059 40.33484244 -26.20623238 38.97998545 -25.90234375 37.62890625 C-25.75221329 36.9101683 -25.60208282 36.19143036 -25.44740295 35.45091248 C-25.12518135 33.93021753 -24.79424831 32.41134644 -24.45532227 30.89428711 C-23.9412071 28.57919333 -23.46192983 26.25882052 -22.98632812 23.93554688 C-22.66873715 22.45788681 -22.34914003 20.98065621 -22.02734375 19.50390625 C-21.88546127 18.81212784 -21.7435788 18.12034943 -21.59739685 17.40760803 C-20.41531608 12.26349664 -18.55545655 9.77866207 -14.29248047 6.81152344 C-13.73963379 6.49731445 -13.18678711 6.18310547 -12.6171875 5.859375 C-12.00746094 5.51132812 -11.39773437 5.16328125 -10.76953125 4.8046875 C-10.14433594 4.45664062 -9.51914063 4.10859375 -8.875 3.75 C-8.24207031 3.38648438 -7.60914062 3.02296875 -6.95703125 2.6484375 C-2.2675047 0 -2.2675047 0 0 0 Z " fill="#FFFFFF" transform="translate(95,381)"/>
<path d="M0 0 C2.34497661 2.11700356 4.3162406 4.49445312 6.3125 6.9375 C6.8792041 7.62191162 7.4459082 8.30632324 8.02978516 9.01147461 C9.16376232 10.38208683 10.29436615 11.75549779 11.42138672 13.13183594 C12.76631513 14.72345243 14.20498693 16.23506737 15.66015625 17.7265625 C19.01588549 21.26576194 20.86119137 23.52928956 21.328125 28.4765625 C20.99837771 34.50079176 20.03049317 40.31461913 18 46 C13.02892835 42.30356211 9.40772471 37.97840588 5.546875 33.15234375 C2.81519666 29.74419861 -0.02323261 26.43281184 -2.875 23.125 C-8.62205705 16.44911629 -14.31903491 9.73216729 -20 3 C-19.67 2.34 -19.34 1.68 -19 1 C-16.015625 0.33203125 -16.015625 0.33203125 -12.25 -0.1875 C-10.40148437 -0.45626953 -10.40148437 -0.45626953 -8.515625 -0.73046875 C-2.88274521 -1.16232287 -2.88274521 -1.16232287 0 0 Z " fill="#FFFFFF" transform="translate(823,204)"/>
<path d="M0 0 C7.42533639 7.18580941 14.1080519 15.03318285 20.59765625 23.0625 C22.33557778 25.18756828 24.08775934 27.28881286 25.87109375 29.375 C26.35980957 29.94694092 26.84852539 30.51888184 27.35205078 31.1081543 C28.29696837 32.21087407 29.24439806 33.31144829 30.19482422 34.40942383 C33.09417222 37.79662748 35.59903824 41.25584285 38 45 C35.88272982 45.51224279 33.76105173 46.01028965 31.625 46.4375 C29.00575164 46.94823522 29.00575164 46.94823522 26.5625 47.8125 C23.63354333 48.56351453 21.94894562 48.75602654 19 48 C15.22192699 44.64943171 12.30781264 40.86465991 9.3359375 36.79980469 C7.30777767 34.06742269 5.12071228 31.48505827 2.9375 28.875 C-2.98693661 21.65425809 -2.98693661 21.65425809 -3.046875 18.65234375 C-2.35769629 12.34998583 -1.38275006 6.18881336 0 0 Z " fill="#FFFFFF" transform="translate(157,747)"/>
<path d="M0 0 C5.84765681 2.56692916 10.48604478 6.6976302 14 12 C14.46812192 16.63974009 13.27434207 20.55729372 12 25 C11.42187781 27.59731332 10.90397991 30.2044448 10.375 32.8125 C9.92047939 34.87584357 9.46356744 36.93867011 9 39 C3.72478565 38.28346035 0.57281114 34.5454632 -2.96875 30.86328125 C-5.17889678 27.74782435 -5.62664345 26.55417286 -5.3125 22.8125 C-4.92456849 20.86446981 -4.4805958 18.92726235 -4 17 C-3.74572041 15.68123955 -3.50010921 14.36078759 -3.26171875 13.0390625 C-1.36850863 2.73701727 -1.36850863 2.73701727 0 0 Z " fill="#FFFFFF" transform="translate(900,645)"/>
<path d="M0 0 C5.10496214 2.40162521 10.19440616 4.97812242 13.31542969 9.87548828 C15.88580925 17.85246508 11.66874693 31.66250613 8 39 C2.89503786 36.59837479 -2.19440616 34.02187758 -5.31542969 29.12451172 C-7.88580925 21.14753492 -3.66874693 7.33749387 0 0 Z " fill="#FFFFFF" transform="translate(93,313)"/>
<path d="M0 0 C3.30816853 2.01335144 6.27683831 4.47426361 9.3125 6.875 C10.14845703 7.51308594 10.98441406 8.15117187 11.84570312 8.80859375 C12.63525391 9.42605469 13.42480469 10.04351562 14.23828125 10.6796875 C14.96055908 11.24413574 15.68283691 11.80858398 16.42700195 12.39013672 C18 14 18 14 18 17 C15.96595642 17.87216409 13.92234514 18.72203505 11.875 19.5625 C10.73804688 20.03816406 9.60109375 20.51382813 8.4296875 21.00390625 C4.54795428 22.13128891 2.82404995 22.27468332 -1 21 C-3.72139776 19.26710024 -6.16149751 17.26577351 -8.625 15.1875 C-9.27984375 14.65318359 -9.9346875 14.11886719 -10.609375 13.56835938 C-13.90397262 10.85731903 -17.05086872 8.09134828 -20 5 C-17.61009899 3.96287315 -15.21473126 2.94531981 -12.8125 1.9375 C-12.13896484 1.64294922 -11.46542969 1.34839844 -10.77148438 1.04492188 C-6.66195658 -0.65902867 -4.245697 -1.28129653 0 0 Z " fill="#FFFFFF" transform="translate(788,169)"/>
<path d="M0 0 C2.96484375 2.109375 2.96484375 2.109375 5.9375 4.75 C10.14802258 8.42275851 14.38166709 11.85113665 19 15 C16.01621783 17.44319105 13.17289905 18.90799314 9.5625 20.25 C8.63566406 20.60578125 7.70882812 20.9615625 6.75390625 21.328125 C3.6244308 22.09162823 2.07967659 21.86735989 -1 21 C-3.20410156 19.64892578 -3.20410156 19.64892578 -5.390625 17.9453125 C-6.18210938 17.33042969 -6.97359375 16.71554687 -7.7890625 16.08203125 C-8.60117188 15.43621094 -9.41328125 14.79039062 -10.25 14.125 C-11.07757813 13.48691406 -11.90515625 12.84882812 -12.7578125 12.19140625 C-18.86917098 7.39248705 -18.86917098 7.39248705 -20 4 C-17.79731661 3.12797877 -15.58986134 2.27754298 -13.375 1.4375 C-12.14523438 0.96183594 -10.91546875 0.48617187 -9.6484375 -0.00390625 C-5.73444684 -1.07250113 -3.83311889 -1.25026563 0 0 Z " fill="#FFFFFF" transform="translate(211,808)"/>
<path d="M0 0 C2.30859375 2.125 2.30859375 2.125 4.4375 5 C5.57832031 6.49853516 5.57832031 6.49853516 6.7421875 8.02734375 C7.85980469 9.49880859 7.85980469 9.49880859 9 11 C10.9002223 13.17516288 12.83340301 15.31262324 14.78515625 17.44140625 C16 19 16 19 16 21 C13.27454354 21.61300233 10.54900519 22.19061627 7.8125 22.75 C6.65911133 23.01490234 6.65911133 23.01490234 5.48242188 23.28515625 C-0.26578564 24.4199955 -0.26578564 24.4199955 -3.765625 22.41796875 C-6.12882039 19.86059471 -8.39092533 17.2854658 -10.5625 14.5625 C-11.67818359 13.17224609 -11.67818359 13.17224609 -12.81640625 11.75390625 C-13.53699219 10.84511719 -14.25757813 9.93632812 -15 9 C-15.75152344 8.10152344 -16.50304687 7.20304687 -17.27734375 6.27734375 C-19 4 -19 4 -19 2 C-16.95928485 1.66089006 -14.91737379 1.32897296 -12.875 1 C-11.73804688 0.814375 -10.60109375 0.62875 -9.4296875 0.4375 C-2.95227075 -0.3887764 -2.95227075 -0.3887764 0 0 Z " fill="#FFFFFF" transform="translate(880,271)"/>
<path d="M0 0 C2.52734375 2.08984375 2.52734375 2.08984375 4.9375 4.9375 C5.78957031 5.93265625 6.64164063 6.9278125 7.51953125 7.953125 C10.74826577 11.91912961 13.94265899 15.89992348 17 20 C11.73472472 23.51018352 4.23154447 24.18491593 -2 23 C-6.03391251 20.35807139 -8.3271067 16.9590578 -11 13 C-12.5095372 11.13662524 -14.02989912 9.28195184 -15.5625 7.4375 C-19 3.14230019 -19 3.14230019 -19 2 C-16.95928485 1.66089006 -14.91737379 1.32897296 -12.875 1 C-11.73804687 0.814375 -10.60109375 0.62875 -9.4296875 0.4375 C-2.98434506 -0.38468491 -2.98434506 -0.38468491 0 0 Z " fill="#FFFFFF" transform="translate(121,703)"/>
</svg>
